<?xml version="1.0" encoding="UTF-8" standalone="no"?>
<!DOCTYPE svg PUBLIC "-//W3C//DTD SVG 1.1//EN" "http://www.w3.org/Graphics/SVG/1.1/DTD/svg11.dtd">
<svg xmlns="http://www.w3.org/2000/svg" version="1.1" viewBox="0.00 0.00 538.00 537.00">
<path stroke="#000000" stroke-width="5" fill="#170e01" d="
  M 518.91 309.86
  Q 514.36 319.31 508.96 325.76
  C 504.09 331.56 497.66 335.26 491.08 338.78
  A 3.90 3.89 65.1 0 0 489.30 343.66
  Q 490.89 347.68 492.50 352.01
  C 497.69 365.95 498.32 382.02 491.22 395.26
  C 482.11 412.22 463.41 420.42 444.48 422.97
  C 440.31 423.53 440.23 427.37 440.28 430.96
  C 440.58 454.91 428.40 475.71 405.11 482.81
  C 394.94 485.91 383.42 485.60 373.23 482.75
  Q 369.99 481.84 366.74 480.91
  Q 362.94 479.83 361.31 483.32
  Q 359.36 487.51 357.15 491.92
  C 349.97 506.22 337.18 517.06 321.05 519.97
  C 303.18 523.19 285.38 514.19 272.66 502.08
  Q 269.84 499.40 266.94 502.07
  C 256.51 511.65 244.15 520.10 229.50 520.82
  C 213.02 521.63 198.83 512.81 187.36 501.22
  C 184.91 498.73 183.14 496.03 182.04 492.66
  Q 180.33 487.47 177.65 483.75
  Q 175.62 480.94 171.89 482.01
  Q 157.90 486.01 144.84 485.51
  C 116.45 484.41 102.56 461.78 97.64 436.78
  Q 97.22 434.60 98.29 432.36
  C 100.53 427.69 98.16 423.88 93.07 423.56
  C 60.05 421.53 31.26 389.52 44.48 356.05
  C 45.86 352.56 47.81 349.52 49.57 346.25
  Q 51.29 343.05 48.27 341.02
  Q 45.22 338.99 42.27 336.88
  Q 25.11 324.65 18.39 306.42
  Q 16.38 300.97 16.05 295.86
  C 15.63 289.41 15.53 282.12 17.60 275.84
  C 21.43 264.22 29.64 254.99 39.73 248.46
  C 41.95 247.03 42.04 244.12 39.97 242.48
  C 31.92 236.14 26.89 228.77 25.60 218.33
  C 22.15 190.41 32.92 168.09 60.38 159.31
  Q 63.46 158.32 66.80 157.22
  Q 69.67 156.27 68.94 153.14
  C 63.32 129.13 66.46 106.80 88.30 92.77
  C 95.94 87.86 104.63 84.00 113.87 83.83
  Q 121.74 83.69 129.69 83.77
  C 133.74 83.81 134.91 80.85 135.18 77.42
  Q 136.15 65.26 144.98 54.63
  C 152.14 46.02 160.72 38.50 171.19 34.81
  C 187.14 29.18 203.19 34.71 217.19 43.95
  Q 221.34 46.69 223.81 42.42
  C 232.92 26.68 246.62 17.02 264.79 15.90
  C 284.70 14.67 302.33 24.88 313.18 41.64
  Q 315.59 45.36 319.44 43.25
  C 326.83 39.19 334.96 33.85 343.01 32.96
  Q 350.28 32.16 359.24 33.46
  C 374.59 35.69 386.86 43.48 394.63 56.65
  C 399.06 64.17 401.45 71.83 403.57 80.18
  A 3.50 3.50 0.0 0 0 407.19 82.82
  Q 413.23 82.43 418.93 82.56
  C 439.02 83.00 456.13 91.38 465.27 110.00
  Q 470.68 121.02 471.54 130.80
  Q 472.14 137.67 469.38 147.21
  C 468.13 151.55 468.68 155.38 473.60 156.71
  Q 482.45 159.11 489.75 163.61
  C 513.98 178.54 519.96 208.80 506.07 232.83
  Q 503.06 238.04 499.26 242.79
  A 3.29 3.29 0.0 0 0 499.59 247.25
  C 512.74 259.51 523.80 272.89 523.10 292.03
  Q 522.73 301.93 518.91 309.86
  Z
  M 444.38 169.21
  Q 444.05 168.11 444.93 166.71
  Q 449.45 159.50 453.53 152.50
  C 468.45 126.91 450.64 95.24 421.16 94.96
  C 410.10 94.86 403.48 98.47 393.22 104.23
  Q 391.95 104.94 389.72 104.73
  C 387.60 104.53 387.19 102.37 387.52 100.67
  C 388.76 94.31 391.54 88.56 390.47 81.87
  C 385.91 53.40 358.43 34.07 331.77 50.56
  Q 325.20 54.63 321.20 59.56
  Q 317.62 63.96 314.00 68.89
  Q 312.16 71.39 309.59 70.41
  A 1.30 1.28 89.3 0 1 308.88 69.71
  Q 307.70 66.83 307.41 63.58
  Q 306.35 51.74 300.73 44.05
  C 294.90 36.07 285.13 30.83 275.56 28.72
  C 253.88 23.95 237.09 37.15 231.61 57.51
  C 230.65 61.08 229.97 66.00 227.62 68.93
  A 2.61 2.61 0.0 0 1 224.45 69.65
  Q 222.39 68.65 221.03 66.72
  C 214.78 57.84 208.27 50.57 197.78 46.90
  Q 188.34 43.60 178.56 45.70
  Q 168.20 47.92 160.63 54.81
  Q 145.36 68.71 147.32 90.07
  C 147.73 94.52 149.25 98.87 150.29 103.41
  Q 150.60 104.78 148.99 105.66
  A 1.93 1.92 -46.4 0 1 147.21 105.71
  Q 143.07 103.68 138.87 101.57
  C 127.87 96.06 115.41 93.34 103.69 97.83
  C 94.28 101.43 86.25 109.62 81.81 118.77
  C 76.31 130.10 77.74 143.79 84.11 154.28
  Q 86.95 158.96 91.23 164.21
  Q 92.56 165.85 92.55 168.02
  Q 92.55 168.72 91.98 169.12
  Q 90.35 170.26 88.27 170.17
  Q 83.80 169.97 79.03 169.68
  C 74.69 169.41 70.14 169.99 66.02 170.77
  C 48.25 174.13 39.60 188.20 37.28 205.09
  C 35.18 220.28 44.16 235.45 57.79 242.06
  Q 61.80 244.00 66.30 245.71
  Q 67.92 246.33 69.10 247.51
  A 1.45 1.45 0.0 0 1 68.98 249.68
  Q 67.78 250.62 66.45 251.03
  C 60.67 252.85 54.99 254.32 49.78 257.35
  Q 35.22 265.84 30.29 281.67
  C 27.37 291.05 27.99 301.81 32.35 310.68
  Q 38.94 324.10 53.72 328.81
  C 59.06 330.50 64.55 330.61 70.01 331.46
  Q 71.83 331.74 73.24 332.77
  A 2.52 2.52 0.0 0 1 74.03 335.91
  C 72.20 339.65 68.32 342.39 65.59 345.31
  C 55.79 355.82 52.15 369.98 56.35 383.68
  C 62.19 402.72 80.54 415.03 100.24 410.81
  C 105.57 409.67 110.34 406.98 115.52 405.19
  A 2.18 2.18 0.0 0 1 118.38 406.87
  Q 118.68 408.58 117.98 410.42
  C 116.04 415.48 113.85 420.42 112.59 425.69
  C 109.44 438.86 111.80 450.98 120.93 460.72
  C 130.18 470.58 141.34 475.97 155.25 473.76
  C 163.27 472.49 170.58 469.08 176.30 463.39
  C 178.72 460.99 182.53 456.45 185.91 456.21
  A 1.22 1.20 -22.3 0 1 186.93 456.63
  Q 188.61 458.59 188.51 461.11
  Q 188.23 467.95 188.77 473.07
  C 190.63 490.55 202.42 503.95 219.72 507.58
  Q 226.49 509.00 232.98 508.05
  Q 248.93 505.71 258.47 492.21
  C 261.57 487.81 263.50 482.17 265.77 477.13
  Q 266.58 475.31 267.95 474.13
  A 2.48 2.48 0.0 0 1 271.39 474.34
  Q 272.79 475.87 273.50 477.54
  C 275.77 482.90 278.02 488.92 281.55 493.32
  Q 292.38 506.87 308.74 507.88
  C 331.68 509.31 353.34 492.12 350.88 467.50
  C 350.53 464.04 349.47 459.10 351.26 455.94
  A 1.84 1.84 0.0 0 1 353.58 455.15
  Q 356.48 456.36 358.43 458.39
  C 366.97 467.24 377.53 473.54 389.81 473.60
  Q 400.77 473.65 409.43 467.78
  Q 417.59 462.24 422.43 455.03
  C 429.90 443.89 429.74 430.69 424.70 418.93
  Q 422.43 413.64 419.74 407.54
  Q 418.90 405.64 420.49 404.41
  Q 420.89 404.09 421.40 404.14
  Q 423.05 404.31 424.52 404.94
  Q 430.06 407.34 435.52 408.87
  Q 455.49 414.46 470.29 401.05
  Q 483.57 389.02 484.47 373.56
  Q 485.25 360.39 477.65 349.72
  C 474.39 345.14 469.74 341.68 465.66 337.84
  Q 464.23 336.49 463.50 334.70
  A 2.52 2.52 0.0 0 1 464.69 331.51
  Q 467.70 329.98 470.87 329.93
  C 487.32 329.67 500.90 322.74 507.29 307.34
  Q 511.16 298.01 509.94 287.73
  C 507.72 269.04 494.76 255.73 476.43 251.62
  Q 474.29 251.14 472.40 250.31
  A 1.51 1.50 -58.3 0 1 471.85 247.96
  C 477.17 241.59 485.60 239.80 490.78 233.20
  Q 498.23 223.67 500.96 214.70
  C 504.44 203.20 501.14 192.23 493.21 183.16
  C 482.91 171.37 469.99 165.37 454.15 168.65
  Q 450.23 169.46 446.28 170.32
  A 1.63 1.62 75.3 0 1 444.38 169.21
  Z"
/>
<path stroke="#000000" stroke-width="5" fill="#170e01" d="
  M 463.40 267.79
  A 194.02 194.02 0.0 0 1 269.38 461.81
  A 194.02 194.02 0.0 0 1 75.36 267.79
  A 194.02 194.02 0.0 0 1 269.38 73.77
  A 194.02 194.02 0.0 0 1 463.40 267.79
  Z
  M 451.43 268.02
  A 181.87 181.87 0.0 0 0 269.56 86.15
  A 181.87 181.87 0.0 0 0 87.69 268.02
  A 181.87 181.87 0.0 0 0 269.56 449.89
  A 181.87 181.87 0.0 0 0 451.43 268.02
  Z"
/>
<path stroke="#000000" stroke-width="5" fill="#170e01" d="
  M 416.53 261.99
  C 412.45 277.73 405.75 293.03 395.89 305.97
  C 394.07 308.36 394.16 311.90 394.47 314.78
  Q 395.82 327.25 392.43 338.87
  Q 390.89 344.16 387.04 352.97
  C 380.58 367.76 375.19 383.62 371.12 398.67
  Q 369.52 404.56 363.52 404.03
  C 347.77 402.62 332.08 403.13 316.73 405.45
  Q 307.12 406.91 300.68 406.53
  C 290.52 405.93 280.02 401.91 270.53 398.92
  C 268.81 398.37 266.02 398.87 264.33 399.68
  C 255.52 403.89 246.37 406.54 236.89 406.82
  C 227.44 407.10 217.99 404.73 208.43 404.09
  Q 192.52 403.03 175.25 404.75
  Q 169.79 405.30 168.59 399.89
  Q 165.54 386.20 162.27 377.14
  Q 160.51 372.28 155.35 361.64
  Q 145.53 341.40 145.38 318.10
  Q 145.31 308.72 139.03 299.61
  Q 134.09 292.45 130.37 285.91
  C 128.19 282.08 126.70 277.35 125.61 272.96
  Q 119.22 247.12 109.99 221.52
  Q 108.17 216.44 112.62 213.38
  C 125.58 204.46 137.62 194.40 150.02 184.75
  Q 168.09 170.68 189.23 163.50
  Q 193.14 162.18 195.14 159.15
  C 199.77 152.15 204.17 145.21 210.54 140.04
  Q 215.56 135.97 223.12 131.62
  Q 242.76 120.32 263.23 103.33
  C 265.57 101.39 268.63 99.66 271.53 101.68
  Q 279.48 107.20 286.96 112.72
  C 297.56 120.55 308.96 127.19 320.04 134.39
  C 329.67 140.64 337.00 150.10 344.37 158.87
  C 347.20 162.24 351.24 163.80 355.37 165.08
  C 372.02 170.22 384.67 179.49 396.97 191.68
  C 404.86 199.49 415.93 205.72 425.42 212.32
  C 427.74 213.94 428.84 216.21 428.08 218.93
  Q 422.18 240.15 416.53 261.99
  Z
  M 217.00 150.13
  C 209.83 154.72 206.17 163.02 208.64 171.11
  Q 209.74 174.70 212.96 179.15
  Q 229.32 201.79 244.70 223.38
  C 248.33 228.48 254.83 227.29 259.46 224.06
  C 262.18 222.16 263.02 219.52 262.77 216.24
  Q 262.06 207.10 261.46 198.45
  C 261.03 192.19 266.53 192.31 270.91 192.41
  C 275.32 192.52 276.97 196.50 276.87 200.60
  Q 276.65 209.37 276.58 218.76
  C 276.55 223.62 281.60 226.20 285.96 226.75
  C 289.42 227.19 292.29 225.52 294.29 222.82
  Q 311.25 199.93 327.99 177.29
  C 336.73 165.48 332.70 156.96 321.28 149.70
  Q 296.15 133.74 272.18 118.28
  C 269.97 116.86 267.91 117.44 265.87 118.75
  Q 240.63 134.99 217.00 150.13
  Z
  M 341.10 249.53
  Q 339.59 252.86 335.52 254.24
  Q 327.29 257.01 319.23 259.14
  Q 314.57 260.36 313.46 265.46
  C 311.80 273.05 315.45 275.93 321.75 278.20
  Q 344.25 286.32 366.57 293.43
  Q 375.96 296.42 379.01 296.66
  C 387.56 297.32 395.11 291.07 397.31 282.61
  Q 405.11 252.78 412.71 223.25
  C 413.53 220.07 410.61 217.96 408.43 216.25
  Q 384.65 197.60 361.03 178.83
  Q 357.25 175.83 354.57 175.02
  C 349.63 173.53 344.19 175.40 341.16 179.61
  Q 323.59 204.04 304.91 230.06
  C 302.61 233.27 301.56 236.81 303.39 240.63
  C 305.29 244.59 310.27 246.29 314.43 244.82
  C 322.22 242.07 328.83 240.15 337.55 240.41
  C 342.81 240.57 342.70 246.00 341.10 249.53
  Z
  M 195.51 245.31
  C 197.44 241.95 207.51 239.34 210.90 241.12
  C 218.08 244.89 232.06 249.86 235.95 239.32
  C 237.09 236.24 236.51 232.94 234.58 230.29
  Q 219.00 208.96 202.73 186.29
  C 197.43 178.92 189.93 175.01 180.89 177.85
  Q 177.13 179.03 170.05 184.94
  Q 149.32 202.24 128.67 218.94
  Q 125.50 221.51 126.49 225.28
  Q 133.75 252.94 141.05 280.72
  C 144.53 293.96 152.69 300.11 166.50 295.31
  Q 191.55 286.60 216.69 278.63
  C 221.85 276.99 225.91 274.68 225.87 268.84
  C 225.84 264.81 224.44 261.59 220.27 260.33
  Q 209.46 257.05 200.77 252.02
  Q 197.78 250.29 195.66 247.55
  A 2.01 2.01 0.0 0 1 195.51 245.31
  Z
  M 302.21 267.88
  A 32.76 32.76 0.0 0 0 269.45 235.12
  A 32.76 32.76 0.0 0 0 236.69 267.88
  A 32.76 32.76 0.0 0 0 269.45 300.64
  A 32.76 32.76 0.0 0 0 302.21 267.88
  Z
  M 361.19 384.76
  C 368.37 365.93 376.01 346.31 383.16 327.70
  C 386.20 319.80 381.96 311.21 374.03 308.60
  Q 345.36 299.17 316.26 289.64
  C 313.42 288.71 310.47 288.33 307.86 290.21
  Q 302.41 294.12 303.40 300.55
  Q 303.82 303.30 308.67 309.25
  Q 311.90 313.19 315.53 317.94
  C 319.79 323.50 317.87 329.05 311.78 332.04
  C 310.34 332.74 308.65 332.32 307.49 331.27
  Q 299.11 323.67 293.55 314.01
  C 292.33 311.88 290.24 309.87 287.69 309.74
  Q 275.52 309.14 275.91 321.54
  Q 276.73 347.74 275.79 374.78
  C 275.34 387.79 284.93 395.45 297.21 394.40
  Q 328.06 391.77 355.63 389.57
  Q 359.48 389.26 361.19 384.76
  Z
  M 223.62 330.13
  C 220.57 327.01 221.89 321.37 223.69 318.01
  C 225.50 314.63 228.71 312.15 231.12 309.32
  C 235.13 304.61 238.37 297.58 232.85 292.36
  Q 228.31 288.06 221.88 290.13
  Q 191.80 299.85 162.12 309.63
  Q 157.50 311.15 157.36 316.02
  C 156.98 328.44 160.24 341.15 165.15 353.34
  Q 170.23 365.94 176.43 380.77
  C 178.49 385.69 179.52 389.23 184.64 389.66
  Q 213.34 392.06 242.24 394.27
  C 253.94 395.17 263.67 386.52 263.70 374.68
  Q 263.76 349.14 263.68 318.63
  C 263.66 311.19 254.74 307.88 249.14 310.89
  Q 246.65 312.22 242.21 318.55
  Q 238.89 323.27 235.28 328.29
  C 232.28 332.44 227.87 334.48 223.62 330.13
  Z"
/>
</svg>
