<?xml version="1.0" encoding="UTF-8" standalone="no"?>
<!DOCTYPE svg PUBLIC "-//W3C//DTD SVG 1.1//EN" "http://www.w3.org/Graphics/SVG/1.1/DTD/svg11.dtd">
<svg xmlns="http://www.w3.org/2000/svg" version="1.1" viewBox="0.00 0.00 639.00 639.00">
<path fill="#fdfffc" d="
  M 169.12 139.50
  C 166.69 140.09 163.87 141.16 161.45 140.15
  C 159.74 139.44 158.26 139.41 156.54 138.48
  Q 146.67 133.16 150.75 121.85
  Q 151.61 119.47 155.13 117.02
  C 159.48 113.99 164.06 111.25 167.87 107.63
  Q 171.98 103.73 176.03 100.29
  C 180.35 96.62 183.26 91.54 187.36 87.66
  Q 191.84 83.43 195.15 78.71
  Q 196.10 77.35 194.94 76.10
  Q 193.93 75.01 194.80 73.79
  C 197.20 70.43 200.31 67.64 202.06 63.90
  Q 204.60 58.45 207.20 53.25
  Q 207.97 51.72 209.18 52.94
  L 211.92 55.74
  Q 212.55 56.38 212.23 57.21
  Q 211.28 59.67 211.86 62.07
  Q 211.97 62.56 212.47 62.47
  Q 215.22 61.99 215.94 59.31
  Q 217.31 54.20 221.08 50.89
  A 0.83 0.82 58.8 0 1 222.39 51.22
  C 224.26 56.11 224.57 60.09 222.55 64.68
  Q 221.59 66.86 220.80 69.09
  A 1.08 1.08 0.0 0 0 221.56 70.51
  Q 225.02 71.37 226.60 74.35
  A 2.23 2.22 74.7 0 0 228.66 75.53
  Q 232.96 75.36 235.57 78.29
  Q 236.66 79.51 238.24 79.43
  C 243.94 79.15 251.28 78.78 255.89 82.13
  Q 261.38 86.11 268.94 88.14
  Q 270.58 88.58 269.26 89.65
  Q 268.74 90.06 268.08 90.14
  Q 262.55 90.75 256.87 90.41
  C 254.99 90.29 253.30 89.43 251.47 88.96
  Q 249.69 88.51 248.98 89.36
  Q 248.06 90.49 249.50 90.64
  Q 254.21 91.14 258.74 91.75
  C 262.89 92.32 264.05 94.60 266.56 97.21
  C 268.39 99.11 271.12 99.05 273.50 99.91
  A 1.72 1.69 80.8 0 1 274.29 100.49
  Q 275.72 102.36 274.00 103.24
  A 1.34 1.34 0.0 0 1 272.97 103.31
  Q 265.89 100.82 259.53 99.28
  Q 257.73 98.85 256.09 99.43
  A 0.64 0.64 0.0 0 0 255.70 100.23
  Q 255.92 100.91 256.66 100.90
  C 260.29 100.84 263.55 101.41 266.14 104.10
  C 267.61 105.61 269.32 107.04 271.20 107.98
  Q 276.71 110.73 281.70 114.34
  A 0.78 0.78 0.0 0 1 281.88 115.41
  Q 281.31 116.25 280.32 115.98
  C 273.83 114.26 267.74 113.28 262.42 108.61
  Q 261.67 107.96 260.65 107.95
  Q 260.46 107.95 260.32 108.07
  Q 259.75 108.56 260.23 109.13
  C 263.53 113.10 267.04 115.81 272.29 116.14
  C 276.41 116.39 278.31 120.43 280.50 123.26
  Q 282.05 125.26 286.68 126.34
  A 1.32 1.28 78.2 0 1 287.45 126.86
  Q 288.17 127.88 287.67 128.44
  Q 286.38 129.91 284.70 129.47
  Q 281.14 128.53 277.10 128.09
  C 272.64 127.61 271.03 122.22 266.83 122.06
  Q 265.11 121.99 266.44 123.08
  C 269.94 125.94 274.16 127.45 277.60 130.18
  C 280.10 132.17 283.13 132.45 285.97 133.70
  C 288.49 134.80 291.35 134.80 294.00 135.75
  Q 294.71 136.00 294.36 136.67
  Q 293.74 137.83 292.55 138.27
  Q 286.58 140.49 280.59 138.25
  C 277.71 137.18 275.61 134.93 273.34 132.93
  A 1.10 1.08 59.6 0 0 272.40 132.68
  Q 271.43 132.88 271.39 133.78
  Q 271.37 134.26 271.62 134.65
  C 274.32 138.96 279.95 142.33 284.69 143.86
  Q 288.76 145.18 292.79 146.44
  Q 293.78 146.75 294.17 147.73
  A 0.56 0.56 0.0 0 1 293.87 148.44
  Q 288.10 150.79 282.17 148.60
  C 280.11 147.83 278.46 146.27 276.61 145.12
  A 0.91 0.90 12.4 0 0 275.23 146.00
  Q 275.91 151.17 280.40 153.61
  Q 286.73 157.05 293.22 160.46
  Q 294.51 161.13 293.45 162.13
  C 291.81 163.71 289.80 163.40 287.74 163.29
  Q 282.96 163.01 278.56 159.45
  A 0.20 0.20 0.0 0 0 278.25 159.51
  L 278.10 159.79
  Q 277.82 160.31 278.26 160.69
  Q 284.90 166.39 291.51 170.82
  Q 292.08 171.20 291.56 171.64
  Q 290.14 172.83 288.08 172.38
  Q 287.68 172.30 287.68 172.70
  L 287.67 173.26
  Q 287.67 173.40 287.81 173.44
  Q 288.63 173.66 289.48 173.66
  A 1.05 1.05 0.0 0 1 290.02 175.61
  C 280.10 181.66 273.08 190.65 266.92 200.26
  C 262.01 207.90 261.08 217.01 258.65 225.27
  C 255.65 235.45 253.94 245.66 249.77 255.49
  Q 248.62 258.20 246.35 260.73
  Q 241.84 265.75 237.90 271.85
  Q 234.34 277.37 228.20 284.09
  C 225.22 287.35 221.14 289.55 218.61 292.75
  C 215.86 296.22 213.99 300.50 212.36 304.68
  Q 209.93 310.88 206.82 317.35
  Q 202.74 325.81 200.25 335.85
  C 199.95 337.07 199.09 338.17 197.99 338.79
  Q 195.03 340.47 193.31 343.59
  Q 189.58 350.38 185.76 356.77
  C 183.13 361.17 180.97 365.75 178.57 370.24
  Q 175.33 376.29 172.86 383.36
  A 0.89 0.89 0.0 0 0 173.70 384.55
  Q 220.01 384.48 273.51 384.80
  Q 296.58 384.94 312.00 384.79
  Q 313.89 384.78 315.62 385.12
  A 0.49 0.49 0.0 0 0 316.19 384.56
  Q 315.31 379.21 313.74 374.20
  C 312.82 371.28 314.38 368.29 315.60 365.77
  Q 320.32 356.03 326.35 346.36
  C 328.42 343.03 330.19 340.90 333.52 338.37
  C 343.09 331.11 352.67 324.54 361.46 315.90
  Q 364.80 312.62 363.73 308.34
  Q 359.67 292.08 347.52 280.92
  C 343.33 277.08 338.45 269.46 339.51 263.75
  C 340.09 260.69 343.15 260.93 344.18 258.45
  C 347.09 251.44 350.40 243.53 348.72 235.93
  Q 347.89 232.16 347.93 227.60
  Q 348.00 218.92 348.78 208.73
  Q 349.19 203.31 347.83 197.82
  Q 345.93 190.20 343.71 182.31
  C 342.80 179.09 343.14 176.12 342.51 172.94
  A 1.22 1.22 0.0 0 1 343.29 171.56
  Q 362.80 164.58 381.62 164.64
  Q 388.69 164.66 398.84 166.65
  C 406.51 168.15 413.86 170.35 421.65 171.17
  C 430.87 172.14 439.77 171.66 448.84 171.26
  C 453.35 171.06 457.57 169.79 461.47 167.39
  Q 466.18 164.50 471.08 161.87
  Q 485.20 154.28 498.74 164.12
  Q 502.04 166.51 506.08 171.81
  Q 510.20 177.22 514.14 183.17
  C 518.20 189.29 523.54 190.02 530.02 188.29
  Q 534.76 187.02 540.40 186.93
  C 547.94 186.81 553.58 189.65 559.82 193.16
  C 562.48 194.67 565.70 192.69 568.25 191.66
  Q 572.24 190.06 576.40 192.11
  C 579.21 193.50 581.98 194.76 585.16 195.05
  Q 588.75 195.37 592.25 195.54
  A 0.84 0.84 0.0 0 1 592.91 196.85
  C 591.12 199.56 586.70 199.31 583.76 198.91
  Q 578.73 198.21 574.00 197.47
  C 569.90 196.83 566.03 199.50 563.18 202.21
  C 558.77 206.40 553.16 206.93 547.20 206.46
  C 545.90 206.36 544.50 207.07 543.54 207.91
  C 539.65 211.32 536.63 211.95 531.72 210.64
  C 528.87 209.88 526.77 211.45 524.06 211.66
  Q 522.53 211.78 521.03 212.33
  Q 511.98 215.68 502.34 213.39
  C 500.00 212.83 498.24 210.46 495.86 210.53
  Q 479.86 210.96 468.23 198.88
  Q 464.43 194.92 460.79 190.70
  C 458.31 187.83 454.88 187.44 451.44 186.64
  C 450.20 186.36 449.07 186.96 447.87 187.18
  C 446.42 187.44 445.16 186.70 443.73 186.51
  Q 443.17 186.43 442.68 186.70
  L 437.03 189.83
  Q 436.41 190.18 436.73 190.82
  C 437.58 192.47 438.33 194.05 438.42 195.96
  Q 438.70 201.33 439.83 206.92
  C 440.58 210.68 440.95 214.75 441.50 218.66
  Q 441.84 220.99 441.01 223.47
  C 440.11 226.16 440.04 228.99 438.80 231.55
  Q 435.06 239.31 430.06 246.17
  C 425.64 252.23 422.63 257.90 425.87 265.58
  Q 427.42 269.26 431.74 274.84
  Q 434.89 278.90 439.51 282.13
  Q 450.52 289.82 460.32 294.53
  C 465.33 296.95 464.35 302.85 462.51 306.93
  Q 460.01 312.50 456.85 317.47
  C 452.35 324.55 449.26 332.33 445.84 340.07
  C 443.00 346.51 441.47 353.13 439.34 359.71
  Q 439.17 360.23 439.33 360.76
  Q 440.61 365.16 444.17 367.52
  C 446.59 369.13 447.93 371.32 450.13 373.12
  Q 454.62 376.77 456.62 383.26
  Q 457.00 384.49 457.41 385.62
  Q 457.59 386.11 458.07 386.29
  L 484.58 396.06
  A 2.11 2.10 -82.5 0 1 485.95 397.85
  Q 486.41 403.00 485.82 408.27
  Q 485.77 408.78 485.25 408.83
  Q 482.76 409.08 480.35 409.00
  Q 452.38 408.06 425.95 407.99
  Q 414.42 407.95 406.00 407.79
  Q 365.01 406.99 324.00 407.22
  Q 313.79 407.27 304.00 407.11
  Q 248.13 406.17 192.25 406.53
  C 188.73 406.55 184.97 406.19 181.24 406.19
  Q 153.82 406.18 127.19 406.20
  A 0.95 0.94 0.0 0 1 126.24 405.26
  L 126.25 393.96
  A 2.11 2.08 73.2 0 1 127.17 392.22
  Q 132.58 388.58 137.86 385.84
  Q 141.19 384.11 146.52 384.54
  C 147.63 384.63 149.64 384.19 150.40 383.28
  C 152.83 380.36 155.93 378.31 158.04 375.10
  Q 163.10 367.37 168.07 360.04
  C 174.04 351.22 178.85 340.62 182.02 329.65
  Q 184.52 321.00 186.85 316.06
  Q 190.42 308.53 191.57 305.50
  Q 197.69 289.39 204.73 271.52
  C 205.44 269.74 206.10 267.12 206.23 265.18
  Q 206.64 259.17 208.49 253.47
  A 0.59 0.58 4.6 0 0 207.84 252.71
  Q 205.99 252.99 204.13 252.70
  Q 180.50 249.06 161.11 246.31
  C 158.90 246.00 153.41 246.76 153.08 249.87
  C 152.14 258.74 152.63 268.26 152.68 277.58
  C 152.71 281.13 154.92 289.68 159.48 290.03
  C 164.04 290.38 167.52 290.59 170.11 295.18
  Q 172.57 299.54 175.07 303.68
  C 175.85 304.97 176.10 306.30 176.77 307.61
  Q 177.07 308.20 176.43 308.36
  C 171.02 309.78 164.46 308.28 159.63 306.44
  C 155.94 305.04 152.82 302.05 150.17 299.06
  Q 145.60 293.91 141.14 289.36
  Q 137.90 286.07 136.27 280.87
  Q 135.20 277.42 135.87 272.35
  Q 137.15 262.55 137.75 252.03
  Q 137.88 249.87 137.72 247.21
  C 137.33 240.54 140.30 228.64 147.55 226.50
  Q 151.16 225.43 156.38 225.05
  C 161.10 224.71 166.31 224.53 170.84 225.66
  C 173.16 226.23 175.33 226.84 177.78 226.66
  Q 187.60 225.92 197.00 222.81
  A 2.10 2.08 -2.7 0 0 198.37 221.32
  Q 200.06 214.29 201.77 207.12
  C 203.21 201.08 205.42 197.10 208.43 192.37
  Q 208.77 191.83 208.51 191.26
  Q 205.61 184.88 205.92 178.76
  Q 206.67 163.67 209.77 147.28
  C 210.54 143.18 210.82 139.17 210.98 134.98
  A 1.94 1.93 8.3 0 0 209.52 133.03
  C 205.69 132.07 199.75 130.58 196.13 133.03
  C 191.25 136.34 186.23 140.04 180.79 142.08
  C 176.79 143.59 173.42 146.14 169.69 148.16
  Q 167.62 149.29 165.77 148.11
  Q 162.43 145.97 160.55 142.95
  Q 160.04 142.13 160.75 141.46
  A 0.79 0.79 0.0 0 1 161.73 141.38
  Q 165.34 143.82 169.38 139.97
  Q 170.13 139.25 169.12 139.50
  Z
  M 335.98 378.43
  A 2.41 2.40 59.2 0 1 335.28 381.22
  Q 333.15 382.97 330.91 383.87
  A 0.63 0.63 0.0 0 0 330.84 385.01
  Q 331.24 385.23 331.70 385.17
  C 335.19 384.75 338.59 385.30 342.12 385.32
  Q 367.56 385.42 394.84 385.68
  C 402.19 385.75 412.25 386.30 420.62 385.88
  Q 428.33 385.50 436.78 386.17
  Q 438.75 386.32 437.50 384.79
  C 435.83 382.72 435.80 380.03 434.37 377.69
  Q 429.82 370.21 424.78 364.97
  C 423.32 363.45 421.88 361.05 422.66 358.90
  C 426.03 349.66 428.55 340.51 432.94 331.24
  C 435.39 326.04 437.45 320.30 439.58 314.90
  Q 440.07 313.66 439.55 312.14
  C 438.96 310.40 439.46 308.60 439.66 306.86
  A 1.64 1.64 0.0 0 0 438.86 305.26
  C 434.77 302.85 429.76 300.38 424.73 300.23
  Q 417.13 300.01 407.80 296.74
  C 401.65 294.60 397.53 291.02 393.79 285.84
  Q 389.83 280.36 385.99 274.92
  A 0.62 0.62 0.0 0 0 385.04 274.84
  Q 384.71 275.16 384.66 275.61
  Q 383.47 286.55 384.13 295.93
  Q 384.25 297.61 383.95 299.16
  C 383.46 301.75 384.44 304.21 384.21 306.89
  Q 383.86 310.95 386.77 315.10
  A 1.06 1.06 0.0 0 1 386.64 316.47
  C 383.43 319.61 379.72 322.41 375.97 324.85
  Q 359.71 335.43 344.16 346.23
  Q 341.90 347.80 341.27 350.38
  Q 340.15 354.95 337.95 359.22
  C 337.18 360.71 336.01 361.75 334.87 362.94
  A 2.10 2.06 69.0 0 0 334.31 364.23
  Q 334.18 366.29 333.28 368.08
  Q 332.97 368.70 333.12 369.37
  Q 334.12 373.96 335.98 378.43
  Z"
/>
<path fill="#fdfffc" d="
  M 256.83 256.55
  Q 260.18 248.15 261.69 236.93
  C 262.51 230.84 265.24 225.63 266.52 219.73
  C 269.52 205.93 275.78 192.88 286.38 183.12
  Q 289.77 180.00 293.13 176.79
  A 2.30 2.28 23.8 0 1 294.75 176.17
  Q 305.03 176.42 313.97 176.78
  Q 322.47 177.14 326.57 176.55
  Q 332.70 175.66 338.98 173.38
  A 1.21 1.20 73.8 0 1 340.57 174.26
  Q 341.38 178.02 341.71 182.00
  C 342.01 185.58 344.10 188.64 343.96 192.13
  Q 343.73 197.64 343.99 203.16
  Q 344.26 208.91 344.00 214.07
  Q 343.53 223.24 343.99 233.40
  C 344.10 235.78 345.05 237.99 344.71 240.31
  C 343.93 245.72 341.99 253.95 337.59 257.87
  Q 333.69 261.36 329.12 263.58
  C 317.94 269.01 304.94 272.23 292.59 270.29
  C 280.07 268.33 268.49 263.97 256.19 259.62
  A 0.66 0.66 0.0 0 1 255.83 258.67
  Q 256.41 257.63 256.83 256.55
  Z"
/>
<path fill="#fdfffc" d="
  M 490.26 500.70
  C 492.30 512.00 494.27 523.60 497.03 534.78
  Q 497.90 538.29 498.02 541.74
  A 0.96 0.96 0.0 0 1 497.08 542.73
  C 464.48 543.38 431.95 543.37 399.25 543.39
  C 372.01 543.41 344.89 543.38 319.00 543.07
  Q 297.80 542.82 228.24 543.57
  C 209.19 543.78 190.49 543.49 171.25 543.63
  Q 147.81 543.80 119.01 543.59
  Q 116.70 543.57 114.02 543.24
  A 1.01 1.01 0.0 0 1 113.15 542.02
  C 117.53 521.90 121.78 501.74 125.59 481.25
  Q 130.80 453.25 129.10 426.06
  Q 128.80 421.26 127.62 416.83
  A 1.19 1.19 0.0 0 1 128.74 415.34
  Q 141.52 415.02 153.75 414.94
  Q 191.52 414.70 230.25 414.66
  Q 264.34 414.62 297.50 414.90
  Q 309.87 415.00 320.26 414.90
  C 344.65 414.68 369.17 415.06 393.26 415.39
  Q 426.94 415.85 449.25 415.63
  Q 467.55 415.46 485.45 415.82
  A 0.89 0.88 2.5 0 1 486.32 416.76
  Q 484.30 448.76 487.01 481.50
  C 487.55 488.06 489.12 494.35 490.26 500.70
  Z
  M 317.76 447.98
  L 294.38 448.18
  A 1.99 1.99 0.0 0 0 292.41 450.19
  L 292.93 510.23
  A 6.65 5.64 89.5 0 0 298.63 516.83
  L 314.71 516.69
  A 6.65 5.64 89.5 0 0 320.29 509.99
  L 319.77 449.95
  A 1.99 1.99 0.0 0 0 317.76 447.98
  Z"
/>
</svg>
