<?xml version="1.0" encoding="UTF-8" standalone="no"?>
<!DOCTYPE svg PUBLIC "-//W3C//DTD SVG 1.1//EN" "http://www.w3.org/Graphics/SVG/1.1/DTD/svg11.dtd">
<svg xmlns="http://www.w3.org/2000/svg" version="1.1" viewBox="0.00 0.00 672.00 672.00">
<path fill="#f7fffc" d="
  M 492.64 286.99
  Q 490.02 286.55 487.22 286.62
  Q 451.08 287.52 413.36 287.18
  C 403.34 287.09 393.47 287.30 383.50 287.35
  Q 297.13 287.73 210.99 287.71
  Q 194.55 287.71 183.55 287.97
  A 1.17 1.17 0.0 0 0 182.40 289.14
  Q 182.34 309.56 182.75 329.75
  C 183.10 346.41 182.95 362.49 182.99 378.97
  C 183.01 386.11 183.47 393.29 183.94 400.46
  Q 184.20 404.41 183.77 408.58
  Q 183.00 416.04 183.85 424.97
  C 184.09 427.46 185.42 429.49 185.12 432.03
  C 184.86 434.27 184.17 436.43 184.29 438.69
  Q 184.55 443.30 184.32 447.87
  C 184.12 451.77 185.26 455.44 184.58 459.28
  C 184.20 461.45 185.51 462.86 185.40 464.86
  Q 185.12 470.24 184.82 475.33
  Q 184.63 478.47 185.74 482.49
  Q 185.90 483.07 185.60 483.59
  Q 184.50 485.55 184.57 487.57
  Q 184.73 492.46 185.84 497.66
  A 1.87 1.87 0.0 0 1 185.77 498.68
  Q 184.32 502.65 184.83 506.04
  C 185.20 508.46 185.96 510.69 185.77 513.21
  Q 185.45 517.46 185.65 521.99
  C 185.77 524.46 184.23 526.32 184.34 528.87
  Q 184.49 532.42 184.46 536.43
  A 0.75 0.74 -89.6 0 0 185.19 537.18
  L 194.75 537.30
  A 3.44 3.43 77.3 0 1 197.78 539.22
  L 199.26 542.22
  Q 200.26 544.24 198.00 544.26
  L 130.90 544.64
  Q 129.37 544.65 130.16 543.35
  L 132.51 539.48
  Q 133.36 538.07 135.00 538.04
  L 144.83 537.84
  A 1.21 1.21 0.0 0 0 146.01 536.64
  Q 146.23 512.94 145.86 487.41
  Q 145.80 483.89 145.92 479.85
  C 146.03 476.42 145.73 473.11 145.73 469.72
  Q 145.67 385.06 144.96 302.27
  Q 144.90 295.53 144.42 288.73
  Q 144.33 287.43 143.03 287.45
  Q 106.64 288.01 68.65 287.63
  Q 67.04 287.62 65.21 287.42
  Q 63.46 287.23 63.32 286.17
  Q 63.17 285.07 63.16 283.89
  Q 63.03 270.75 62.89 257.62
  Q 62.87 255.50 62.98 253.25
  A 0.99 0.99 0.0 0 1 63.72 252.35
  Q 65.52 251.91 67.25 251.84
  Q 81.52 251.32 96.70 251.88
  C 100.74 252.02 104.64 251.66 108.75 251.73
  Q 126.46 252.02 143.25 252.03
  A 1.08 1.08 0.0 0 0 144.33 250.95
  C 144.30 241.02 144.01 232.37 143.93 221.05
  Q 143.89 214.96 143.35 209.16
  A 0.74 0.73 -5.1 0 0 142.55 208.50
  Q 139.25 208.75 135.95 208.76
  Q 94.56 208.98 66.28 208.28
  Q 64.52 208.24 62.91 207.62
  A 1.10 1.10 0.0 0 1 62.21 206.67
  Q 61.53 197.73 61.94 190.08
  A 1.02 1.01 2.2 0 0 60.94 189.01
  C 53.29 188.91 45.75 188.87 39.41 184.11
  C 35.54 181.21 33.79 176.38 32.32 171.95
  Q 32.10 171.28 32.25 170.59
  A 1.18 1.18 0.0 0 1 33.44 169.65
  Q 45.95 170.12 57.75 170.16
  Q 143.96 170.49 222.26 170.89
  Q 231.96 170.94 242.08 170.92
  Q 302.18 170.79 357.64 171.17
  Q 361.70 171.20 365.99 171.17
  Q 484.40 170.44 637.30 170.60
  Q 639.49 170.60 639.06 172.74
  Q 636.71 184.63 625.62 188.16
  C 621.20 189.56 616.01 189.00 611.24 188.95
  A 1.12 1.12 0.0 0 0 610.11 190.00
  Q 609.74 196.19 610.89 202.71
  Q 611.19 204.43 610.95 206.15
  A 1.78 1.76 -89.5 0 1 609.43 207.66
  Q 605.80 208.14 602.18 208.22
  Q 569.97 208.96 539.14 208.22
  Q 535.81 208.14 532.23 208.60
  Q 531.69 208.67 531.52 209.18
  Q 531.01 210.68 531.06 212.25
  Q 531.67 231.02 530.75 249.00
  Q 530.62 251.56 533.49 251.59
  Q 539.06 251.63 543.79 251.53
  Q 568.57 251.04 584.70 251.15
  C 593.00 251.21 600.81 250.77 608.97 251.28
  A 1.09 1.08 -1.2 0 1 609.98 252.24
  C 610.17 253.82 610.46 255.39 610.43 257.00
  Q 610.19 270.49 610.37 283.75
  A 1.90 1.89 -4.1 0 1 608.72 285.65
  Q 605.37 286.08 601.55 286.15
  Q 564.62 286.76 533.41 286.48
  Q 530.95 286.46 530.96 288.92
  Q 531.38 362.28 531.51 434.50
  Q 531.52 444.16 531.65 454.50
  Q 532.08 489.63 532.18 525.24
  Q 532.19 528.54 532.63 532.82
  A 1.42 1.41 87.3 0 0 534.02 534.09
  L 542.77 534.14
  Q 545.84 534.15 547.63 536.65
  Q 547.95 537.11 548.20 537.62
  Q 549.52 540.30 546.54 540.32
  L 482.78 540.73
  Q 479.64 540.75 480.84 537.85
  L 481.25 536.85
  A 4.05 4.05 0.0 0 1 484.87 534.35
  L 493.92 534.08
  A 1.17 1.16 1.1 0 0 495.05 533.00
  Q 495.35 528.99 495.34 524.75
  Q 495.16 435.90 494.27 353.50
  C 494.04 331.69 494.08 309.82 493.63 288.14
  Q 493.61 287.15 492.64 286.99
  Z
  M 493.7553 210.2560
  A 1.70 1.70 0.0 0 0 492.0524 208.5590
  L 353.3326 208.8011
  A 1.70 1.70 0.0 0 0 351.6356 210.5041
  L 351.7047 250.1040
  A 1.70 1.70 0.0 0 0 353.4076 251.8010
  L 492.1274 251.5589
  A 1.70 1.70 0.0 0 0 493.8244 249.8559
  L 493.7553 210.2560
  Z
  M 183.00 208.84
  A 1.26 1.26 0.0 0 0 181.74 210.10
  L 181.65 250.85
  A 1.26 1.26 0.0 0 0 182.92 252.12
  L 323.44 251.81
  A 1.26 1.26 0.0 0 0 324.70 250.54
  L 324.42 210.13
  A 1.26 1.26 0.0 0 0 323.16 208.88
  L 183.00 208.84
  Z"
/>
</svg>
