<?xml version="1.0" encoding="UTF-8" standalone="no"?>
<!DOCTYPE svg PUBLIC "-//W3C//DTD SVG 1.1//EN" "http://www.w3.org/Graphics/SVG/1.1/DTD/svg11.dtd">
<svg xmlns="http://www.w3.org/2000/svg" version="1.1" viewBox="0.00 0.00 555.00 555.00">
<path fill="#ffffff" d="
  M 252.75 168.11
  Q 177.00 167.80 101.25 167.48
  C 98.55 167.47 94.97 167.72 93.02 165.66
  Q 88.50 160.88 85.40 156.71
  A 0.65 0.65 0.0 0 1 85.86 155.68
  Q 94.18 154.85 102.50 154.77
  Q 132.04 154.47 162.75 154.99
  Q 173.82 155.18 182.75 155.24
  Q 233.40 155.57 283.50 155.68
  Q 288.63 155.69 293.75 155.70
  Q 331.25 155.79 368.75 155.91
  Q 378.03 155.94 388.74 155.81
  C 415.83 155.49 442.81 156.11 470.00 156.21
  Q 471.91 156.21 472.40 157.64
  C 473.40 160.57 467.20 165.75 464.78 167.33
  Q 462.96 168.51 461.00 168.51
  Q 434.75 168.52 408.50 168.50
  Q 330.37 168.42 252.75 168.11
  Z"
/>
<path fill="#ffffff" d="
  M 464.70 180.38
  Q 467.90 183.51 469.70 186.57
  Q 481.79 207.12 494.87 227.07
  C 497.97 231.80 501.37 235.82 505.05 239.98
  Q 506.46 241.58 507.35 243.50
  C 510.92 251.19 501.34 252.89 496.00 252.77
  Q 480.23 252.43 467.12 252.46
  Q 443.52 252.51 419.78 252.75
  Q 410.22 252.84 399.75 252.55
  C 388.62 252.24 377.40 252.70 366.41 252.73
  C 303.03 252.96 258.25 253.32 214.41 253.54
  C 203.86 253.60 193.06 253.78 182.35 253.44
  Q 173.79 253.17 165.61 253.32
  Q 133.89 253.91 102.26 253.22
  C 88.45 252.92 74.19 253.19 60.15 252.86
  C 57.99 252.81 55.01 252.92 53.38 251.22
  Q 51.62 249.37 50.14 246.95
  Q 49.04 245.16 50.19 243.52
  C 53.59 238.65 58.40 234.50 61.62 230.00
  Q 75.93 209.98 82.27 199.12
  Q 87.79 189.68 93.75 179.45
  A 2.10 2.09 9.1 0 1 95.14 178.45
  Q 98.76 177.71 102.03 177.64
  Q 145.80 176.71 188.50 177.76
  Q 197.79 177.98 208.50 178.05
  Q 238.25 178.25 269.00 178.69
  Q 271.16 178.72 273.50 178.74
  Q 329.49 179.19 382.50 178.90
  C 396.57 178.83 413.11 178.00 427.91 178.03
  Q 445.33 178.07 458.10 178.52
  C 460.25 178.59 463.15 178.86 464.70 180.38
  Z"
/>
<path fill="#ffffff" d="
  M 342.18 277.17
  Q 342.09 269.92 341.51 262.57
  Q 341.46 261.93 342.10 261.94
  L 359.94 261.99
  A 0.31 0.31 0.0 0 1 360.25 262.31
  L 359.90 277.46
  A 0.36 0.36 0.0 0 0 360.32 277.82
  Q 362.51 277.46 364.91 277.54
  C 369.07 277.67 370.45 274.00 369.81 270.48
  A 1.11 1.11 0.0 0 1 370.23 269.40
  C 372.49 267.66 374.44 265.52 372.89 262.56
  Q 372.58 261.96 373.25 261.96
  L 409.07 261.83
  A 0.53 0.53 0.0 0 1 409.55 262.61
  C 408.66 264.26 409.12 266.11 410.06 267.60
  Q 411.79 270.35 412.19 273.66
  C 412.82 278.83 417.61 277.42 421.03 278.12
  Q 421.77 278.28 421.75 277.52
  Q 421.64 271.52 421.54 265.46
  Q 421.52 264.00 420.67 262.80
  A 0.46 0.46 0.0 0 1 421.03 262.08
  L 437.15 261.63
  Q 437.41 261.63 437.39 261.89
  L 436.69 276.94
  Q 436.66 277.64 437.35 277.51
  Q 439.67 277.08 442.28 277.27
  C 446.71 277.59 447.19 272.74 447.29 269.69
  A 1.72 1.71 -21.0 0 1 447.83 268.49
  Q 450.77 265.72 450.25 262.01
  Q 450.16 261.33 450.85 261.35
  Q 467.24 261.81 481.26 261.39
  Q 483.32 261.32 484.90 262.19
  A 1.21 1.20 6.2 0 1 485.48 262.91
  Q 486.37 265.74 486.35 267.25
  Q 486.09 286.37 486.25 305.00
  Q 486.34 315.26 486.05 325.00
  C 485.13 355.74 485.27 386.01 485.03 416.59
  A 0.80 0.80 0.0 0 1 484.24 417.38
  L 435.23 417.45
  Q 434.01 417.45 434.02 416.23
  L 435.54 306.59
  Q 435.56 305.17 436.63 304.23
  C 439.57 301.62 444.94 300.68 448.70 299.62
  C 454.55 297.98 458.98 289.98 459.55 284.33
  Q 459.71 282.74 458.11 282.70
  C 441.89 282.35 425.67 282.77 409.42 282.59
  Q 389.75 282.39 371.65 282.94
  Q 361.41 283.26 352.00 283.14
  Q 336.24 282.93 308.50 283.20
  Q 289.12 283.39 269.75 283.55
  Q 260.11 283.63 249.75 283.49
  Q 227.35 283.20 205.74 283.41
  Q 194.74 283.51 185.75 283.46
  Q 150.02 283.25 110.25 283.66
  Q 104.22 283.72 98.51 283.42
  A 0.76 0.75 0.7 0 0 97.71 284.19
  Q 97.95 293.09 105.05 298.58
  C 109.78 302.25 115.64 301.55 121.24 302.03
  A 1.11 1.10 -1.7 0 1 122.23 302.96
  C 123.14 309.04 122.79 314.91 122.91 320.94
  Q 123.85 367.91 124.77 414.90
  Q 124.82 417.26 124.70 419.66
  A 0.86 0.85 -3.8 0 1 123.99 420.46
  Q 122.44 420.74 120.84 420.75
  Q 99.90 420.87 78.99 420.43
  A 2.42 2.41 84.2 0 1 76.69 418.55
  Q 75.95 415.25 75.94 412.00
  Q 75.92 401.86 75.62 392.26
  C 74.79 365.52 73.83 338.23 73.50 311.01
  Q 73.21 287.06 72.21 262.77
  A 0.82 0.81 87.9 0 1 72.99 261.92
  C 79.86 261.66 86.04 261.72 93.98 262.17
  Q 102.56 262.65 111.66 262.40
  A 0.83 0.83 0.0 0 1 112.50 263.43
  C 112.11 265.10 112.30 266.79 113.30 268.21
  Q 115.16 270.86 115.29 274.07
  C 115.50 279.50 121.01 277.89 124.34 278.69
  Q 124.96 278.83 124.96 278.20
  Q 125.00 271.01 124.26 263.60
  Q 124.20 263.00 124.81 262.99
  L 138.08 262.99
  Q 138.66 262.99 138.63 263.57
  L 137.95 277.98
  Q 137.92 278.57 138.51 278.58
  C 141.78 278.61 146.67 279.12 147.46 274.99
  Q 148.28 270.67 150.45 266.89
  Q 151.47 265.12 150.61 263.30
  A 0.47 0.47 0.0 0 1 151.09 262.64
  C 154.38 263.01 157.67 262.32 161.01 262.32
  C 166.96 262.32 172.75 261.87 178.70 262.24
  Q 185.12 262.64 191.04 261.80
  A 0.50 0.50 0.0 0 1 191.58 262.46
  Q 190.92 264.31 191.72 266.08
  Q 193.53 270.03 194.65 274.51
  C 195.64 278.49 200.53 277.42 203.51 277.91
  A 0.34 0.33 -85.8 0 0 203.90 277.57
  L 203.49 262.93
  Q 203.48 262.35 204.06 262.34
  L 222.17 262.20
  Q 222.63 262.20 222.61 262.66
  L 222.04 277.19
  A 0.67 0.67 0.0 0 0 222.75 277.89
  C 227.43 277.56 231.36 278.45 232.03 272.20
  C 232.38 268.96 235.88 265.80 234.52 262.75
  Q 234.25 262.16 234.90 262.16
  L 329.29 261.76
  A 0.47 0.47 0.0 0 1 329.73 262.38
  Q 329.08 264.36 330.03 266.23
  Q 331.86 269.82 332.61 273.91
  C 333.44 278.37 338.35 276.92 341.39 277.78
  Q 342.19 278.01 342.18 277.17
  Z"
/>
<path fill="#ffffff" d="
  M 417.37 301.05
  A 3.65 3.65 0.0 0 1 420.99 304.73
  L 420.27 408.82
  A 9.54 0.80 -89.6 0 1 419.40 418.35
  L 358.50 417.93
  A 9.54 0.80 -89.6 0 1 357.77 408.38
  L 358.49 304.29
  A 3.65 3.65 0.0 0 1 362.17 300.67
  L 417.37 301.05
  Z"
/>
<path fill="#ffffff" d="
  M 320.43 326.70
  A 1.33 1.33 0.0 0 0 319.12 325.62
  L 240.41 325.66
  A 1.43 1.33 -0.2 0 0 238.98 327.00
  L 239.55 418.20
  A 1.01 1.01 0.0 0 1 238.55 419.22
  L 220.59 419.26
  Q 219.31 419.26 219.30 417.99
  Q 218.74 362.29 218.52 306.57
  Q 218.52 304.83 218.86 303.16
  Q 218.96 302.65 219.45 302.46
  Q 221.31 301.73 223.33 301.70
  Q 286.07 300.86 336.38 301.04
  Q 338.78 301.04 340.93 302.18
  Q 341.37 302.42 341.49 302.90
  Q 342.18 305.68 342.17 308.00
  Q 341.81 361.23 341.92 417.62
  A 0.76 0.75 88.4 0 1 341.21 418.38
  Q 331.97 418.86 322.71 417.91
  A 1.32 1.31 -1.4 0 1 321.53 416.80
  Q 321.08 413.77 321.10 410.75
  Q 321.23 372.60 320.91 331.88
  Q 320.89 329.01 320.43 326.70
  Z"
/>
<path fill="#ffffff" d="
  M 199.24 302.60
  C 202.50 303.24 202.49 307.27 202.53 309.75
  Q 203.26 362.60 203.36 418.83
  Q 203.36 419.69 202.50 419.76
  Q 198.87 420.05 195.20 420.12
  Q 171.58 420.61 141.19 420.12
  A 0.87 0.87 0.0 0 1 140.33 419.23
  Q 140.63 405.84 140.40 392.00
  Q 139.89 360.99 139.52 327.99
  C 139.44 320.73 138.95 311.33 138.99 303.05
  A 0.78 0.78 0.0 0 1 139.76 302.27
  Q 166.43 301.64 189.16 301.77
  Q 195.20 301.81 199.24 302.60
  Z"
/>
</svg>
