<?xml version="1.0" encoding="UTF-8" standalone="no"?>
<!DOCTYPE svg PUBLIC "-//W3C//DTD SVG 1.1//EN" "http://www.w3.org/Graphics/SVG/1.1/DTD/svg11.dtd">
<svg xmlns="http://www.w3.org/2000/svg" version="1.1" viewBox="0.00 0.00 1076.00 993.00">
<path fill="#ffffff" d="
  M 398.49 326.62
  Q 398.57 335.48 398.81 343.88
  C 399.31 361.39 398.83 378.90 398.95 396.48
  Q 399.01 405.44 399.31 416.23
  C 399.54 424.80 399.48 433.61 399.43 442.34
  C 399.41 446.80 401.11 449.75 403.39 453.27
  C 403.73 453.78 404.16 453.95 404.75 454.00
  Q 405.35 454.05 405.71 454.52
  C 406.79 455.93 407.84 457.37 409.63 457.97
  C 411.70 458.67 415.18 459.60 415.50 462.15
  Q 417.10 474.99 415.60 490.10
  Q 415.54 490.65 415.00 490.75
  Q 413.25 491.09 411.50 490.99
  Q 404.17 490.61 397.68 490.59
  Q 359.99 490.48 320.10 490.04
  C 309.82 489.92 299.79 490.43 289.75 490.40
  Q 277.08 490.36 265.01 490.07
  Q 262.41 490.01 259.34 489.92
  A 2.23 2.22 85.3 0 1 257.22 488.12
  C 256.60 484.91 256.04 481.30 256.61 478.02
  Q 257.44 473.32 257.79 468.45
  C 258.06 464.67 260.43 459.54 264.36 458.25
  Q 268.59 456.86 272.18 454.64
  Q 273.81 453.64 273.87 451.71
  C 274.02 447.76 274.50 443.78 274.45 439.75
  Q 274.12 411.50 274.44 382.20
  Q 274.61 366.57 274.35 351.58
  C 274.20 343.54 274.66 335.29 274.50 327.25
  Q 274.44 324.66 271.75 324.68
  Q 250.74 324.89 229.97 323.58
  A 2.11 2.09 75.4 0 1 228.31 322.60
  Q 223.56 315.09 219.19 307.62
  C 217.23 304.27 213.58 301.89 214.07 297.55
  Q 214.14 296.91 214.73 296.66
  Q 216.24 296.01 217.68 295.89
  C 221.81 295.56 227.90 295.42 231.36 293.59
  Q 246.02 285.87 254.37 277.91
  Q 259.73 272.81 265.09 267.46
  Q 269.98 262.57 275.07 261.03
  Q 278.64 259.94 286.60 259.81
  Q 289.91 259.76 292.95 259.27
  Q 296.47 258.69 299.32 259.23
  C 303.40 259.99 307.63 259.94 311.66 258.98
  A 1.09 1.09 0.0 0 0 312.48 257.74
  Q 311.63 252.61 311.65 247.61
  Q 311.67 243.02 314.59 238.40
  Q 319.02 231.39 328.13 229.75
  C 341.88 227.28 360.67 230.05 361.89 247.05
  Q 362.04 249.13 361.67 254.16
  C 361.54 255.96 362.55 257.56 364.24 258.16
  C 366.10 258.82 367.86 260.14 369.78 260.43
  Q 375.17 261.22 379.84 260.42
  C 383.90 259.72 388.17 260.37 392.45 260.62
  C 397.62 260.92 401.80 263.60 405.43 267.07
  Q 415.41 276.60 424.96 285.33
  Q 432.29 292.02 440.70 294.55
  Q 444.25 295.62 452.56 296.24
  Q 455.19 296.44 458.11 297.81
  Q 458.55 298.02 458.53 298.51
  Q 458.47 300.26 457.61 301.86
  Q 453.27 309.96 448.60 318.09
  C 446.76 321.29 444.43 323.82 440.73 324.82
  Q 435.71 326.17 430.73 326.09
  Q 414.17 325.82 399.37 325.73
  Q 398.48 325.73 398.49 326.62
  Z
  M 342.29 357.61
  Q 329.82 356.22 318.81 361.68
  C 307.22 367.42 301.89 380.15 302.50 392.54
  Q 303.09 404.36 308.91 413.61
  C 312.65 419.55 320.19 423.37 326.81 425.10
  C 331.80 426.41 338.44 426.58 343.71 425.86
  C 352.80 424.64 363.15 417.76 367.49 409.08
  C 369.80 404.46 371.92 400.10 371.89 394.83
  Q 371.79 376.40 359.92 365.95
  Q 351.63 358.66 342.29 357.61
  Z"
/>
<path fill="#ffffff" d="
  M 801.51 326.53
  Q 801.32 327.19 801.33 327.88
  C 801.58 339.14 801.94 350.25 801.85 361.75
  Q 801.69 381.85 801.93 397.99
  Q 801.99 402.07 802.01 406.50
  Q 802.04 412.27 802.27 416.85
  Q 802.54 422.34 802.42 427.49
  Q 802.12 441.06 802.67 445.47
  Q 803.07 448.65 806.51 453.64
  Q 806.81 454.06 807.32 454.04
  L 807.68 454.02
  Q 808.16 454.00 808.47 454.36
  C 809.56 455.63 810.59 457.13 812.19 457.76
  C 815.14 458.92 818.23 459.36 818.60 463.20
  Q 819.93 477.01 818.52 489.92
  A 1.19 1.19 0.0 0 1 817.34 490.98
  C 811.20 490.98 805.16 490.60 798.88 490.58
  Q 740.84 490.33 725.74 490.06
  C 713.95 489.86 702.26 490.52 690.42 490.41
  C 681.36 490.34 671.81 490.28 662.23 489.93
  A 2.26 2.26 0.0 0 1 660.10 488.10
  C 659.43 484.56 658.98 481.03 659.63 477.34
  Q 660.37 473.08 660.66 468.91
  C 660.96 464.59 663.24 459.46 667.73 458.07
  C 670.00 457.37 676.48 455.10 676.71 452.17
  C 677.04 447.89 677.40 443.56 677.34 439.24
  Q 676.95 407.55 677.40 379.00
  Q 677.55 370.12 677.21 344.20
  C 677.13 338.29 677.89 332.46 677.20 326.54
  Q 676.99 324.71 675.11 324.72
  Q 653.34 324.89 633.22 323.61
  Q 631.72 323.51 630.92 322.19
  Q 626.40 314.76 621.60 306.92
  Q 620.39 304.94 618.56 302.87
  C 617.40 301.57 616.88 299.60 616.99 297.90
  A 1.80 1.79 -2.4 0 1 618.53 296.24
  Q 623.74 295.51 628.91 295.04
  Q 632.21 294.74 635.38 293.03
  Q 649.56 285.40 658.00 277.26
  Q 663.46 271.98 668.75 266.78
  C 672.07 263.52 676.46 260.82 681.34 260.31
  Q 686.31 259.80 691.01 259.71
  Q 693.28 259.67 695.46 259.37
  C 697.47 259.11 699.57 258.66 701.55 259.10
  Q 707.71 260.45 714.29 259.03
  Q 715.55 258.76 715.38 257.49
  C 714.26 249.05 713.50 242.59 719.60 235.64
  C 725.73 228.67 738.34 228.13 747.18 229.65
  C 760.29 231.91 766.40 240.52 764.53 253.65
  C 764.22 255.82 765.54 257.60 767.55 258.33
  C 769.24 258.94 770.77 260.08 772.54 260.38
  Q 777.36 261.20 782.21 260.46
  Q 785.58 259.95 788.93 260.14
  Q 792.69 260.35 796.47 260.78
  C 802.98 261.51 808.05 266.53 812.58 271.01
  Q 823.60 281.91 831.64 288.35
  Q 839.61 294.74 849.78 295.62
  C 853.50 295.94 857.75 296.19 861.13 297.92
  Q 861.65 298.19 861.53 298.77
  Q 861.11 300.83 860.09 302.72
  Q 855.84 310.58 851.50 318.12
  C 849.77 321.13 847.48 323.71 844.01 324.73
  Q 839.08 326.17 833.70 326.09
  Q 816.94 325.83 802.59 325.72
  A 1.11 1.11 0.0 0 0 801.51 326.53
  Z
  M 705.54 394.99
  C 706.54 404.00 710.10 414.50 717.88 419.71
  Q 725.48 424.81 733.43 425.80
  Q 744.15 427.12 751.27 424.80
  C 758.19 422.55 766.01 417.04 769.65 410.46
  Q 772.15 405.93 773.76 401.25
  Q 775.07 397.48 774.72 391.75
  Q 773.63 373.63 760.05 363.73
  Q 752.58 358.29 744.93 357.56
  Q 731.81 356.32 720.98 362.06
  C 709.11 368.36 704.14 382.38 705.54 394.99
  Z"
/>
<ellipse fill="#ffffff" cx="0.00" cy="0.00" transform="translate(420.75,480.63) rotate(85.0)" rx="2.06" ry="0.40"/>
<ellipse fill="#ffffff" cx="0.00" cy="0.00" transform="translate(823.53,480.16) rotate(87.3)" rx="1.61" ry="0.30"/>
<path fill="#ffffff" d="
  M 374.83 664.33
  Q 374.85 665.47 375.99 665.46
  L 405.91 665.32
  A 3.22 3.20 72.1 0 1 408.55 666.68
  Q 411.13 670.32 413.71 673.85
  C 415.10 675.74 416.06 677.67 416.04 680.06
  Q 415.84 708.76 416.10 726.98
  Q 416.13 729.27 416.90 731.69
  Q 417.08 732.23 417.60 732.46
  C 419.57 733.31 422.94 733.09 424.90 732.74
  Q 427.14 732.34 429.58 732.47
  C 434.78 732.74 443.83 733.04 444.74 740.02
  Q 445.05 742.38 445.08 744.76
  C 445.20 754.08 445.86 764.30 444.75 773.60
  A 1.26 1.26 0.0 0 1 443.64 774.70
  Q 438.54 775.26 432.75 775.24
  Q 346.18 774.93 275.00 775.78
  Q 264.76 775.90 251.01 775.89
  Q 239.26 775.88 227.71 775.28
  A 0.82 0.82 0.0 0 1 226.94 774.51
  C 226.79 771.83 226.60 769.26 226.76 766.52
  Q 227.66 751.37 226.23 736.25
  A 1.38 1.38 0.0 0 1 227.31 734.78
  Q 229.75 734.25 232.50 734.32
  Q 243.01 734.59 254.68 733.99
  A 1.34 1.33 -0.3 0 0 255.94 732.73
  C 256.08 730.41 256.47 728.00 256.47 725.69
  Q 256.45 707.19 256.57 690.02
  Q 256.59 687.23 256.83 684.60
  C 257.04 682.27 256.71 679.64 257.68 677.48
  C 259.74 672.88 263.58 667.03 269.10 666.67
  Q 282.47 665.79 295.97 665.91
  A 1.66 1.65 -82.9 0 0 297.59 664.64
  C 298.45 661.00 298.81 657.19 298.80 653.46
  C 298.73 613.13 299.68 572.09 299.38 533.47
  Q 299.32 526.74 299.66 518.00
  Q 299.78 515.02 299.47 512.01
  Q 299.32 510.52 297.81 510.50
  Q 289.10 510.39 280.62 507.51
  C 277.42 506.42 275.60 503.73 275.05 500.43
  Q 274.94 499.78 275.59 499.84
  C 279.24 500.17 282.86 500.89 286.55 500.74
  Q 294.51 500.40 303.06 500.70
  C 315.99 501.15 327.90 500.63 340.60 500.81
  Q 359.26 501.07 377.28 501.26
  Q 387.20 501.37 397.75 500.41
  Q 398.66 500.32 398.07 501.02
  Q 397.70 501.46 397.48 501.99
  Q 397.26 502.54 397.27 503.13
  C 397.50 512.19 381.18 511.69 375.83 511.30
  Q 374.21 511.18 374.38 512.80
  Q 374.91 517.71 374.90 520.83
  Q 374.66 585.06 374.73 652.46
  Q 374.73 657.93 374.83 664.33
  Z"
/>
<path fill="#ffffff" d="
  M 777.81 664.24
  Q 777.87 665.47 779.10 665.46
  L 808.89 665.33
  A 3.02 3.01 -18.3 0 1 811.34 666.56
  Q 814.59 670.92 817.50 675.18
  Q 818.96 677.32 818.94 680.10
  Q 818.66 711.68 819.09 727.88
  Q 819.15 729.87 819.93 731.93
  Q 820.11 732.41 820.61 732.53
  Q 824.30 733.40 827.90 732.74
  Q 830.13 732.33 832.48 732.48
  C 836.96 732.77 845.81 733.00 847.30 738.61
  Q 847.93 740.99 847.95 743.49
  Q 848.00 750.35 848.27 757.39
  C 848.47 762.79 848.09 768.15 847.72 773.54
  A 1.21 1.21 0.0 0 1 846.64 774.66
  Q 840.49 775.34 834.76 775.31
  Q 752.83 774.89 677.50 775.76
  Q 660.54 775.96 644.50 775.80
  Q 637.33 775.73 630.83 775.32
  Q 629.90 775.27 629.84 774.34
  C 629.69 771.89 629.50 769.56 629.66 767.03
  Q 630.63 751.51 629.17 736.81
  Q 628.98 734.90 630.88 734.62
  Q 633.32 734.26 635.74 734.31
  Q 646.85 734.56 657.64 734.01
  A 1.21 1.21 0.0 0 0 658.78 732.96
  Q 659.42 728.17 659.40 723.99
  C 659.37 709.01 659.35 695.20 659.79 681.75
  Q 659.91 678.29 661.32 675.84
  Q 663.81 671.50 666.62 668.90
  Q 668.97 666.72 673.50 666.51
  Q 683.78 666.03 694.22 665.87
  C 695.92 665.84 697.61 666.04 699.27 665.82
  A 1.35 1.34 -86.2 0 0 700.41 664.82
  Q 701.73 659.73 701.72 655.00
  C 701.62 618.23 702.35 579.34 702.35 544.75
  C 702.35 540.07 702.16 535.39 702.30 530.74
  Q 702.60 521.55 702.49 512.06
  A 1.52 1.51 -89.8 0 0 701.01 510.56
  Q 692.57 510.37 683.95 507.75
  Q 680.80 506.80 679.21 503.92
  L 678.28 502.25
  Q 676.74 499.48 679.88 499.91
  Q 685.39 500.67 687.97 500.63
  Q 696.34 500.49 705.49 500.73
  Q 715.45 500.98 723.09 500.83
  Q 733.94 500.61 742.80 500.81
  Q 767.71 501.40 793.26 501.04
  C 795.75 501.01 798.12 500.56 800.65 500.43
  Q 801.29 500.39 800.95 500.93
  C 799.76 502.84 800.57 505.09 799.11 506.75
  Q 796.02 510.24 791.01 510.91
  Q 785.04 511.72 778.73 511.28
  A 1.32 1.32 0.0 0 0 777.33 512.72
  Q 777.80 518.07 777.80 522.80
  Q 777.76 586.57 777.44 639.84
  Q 777.35 653.82 777.81 664.24
  Z"
/>
</svg>
