<?xml version="1.0" encoding="UTF-8" standalone="no"?>
<!DOCTYPE svg PUBLIC "-//W3C//DTD SVG 1.1//EN" "http://www.w3.org/Graphics/SVG/1.1/DTD/svg11.dtd">
<svg xmlns="http://www.w3.org/2000/svg" version="1.1" viewBox="0.00 0.00 431.00 431.00">
<path fill="#fdfffe" d="
  M 290.58 195.80
  C 293.19 194.57 295.53 193.00 298.33 192.12
  Q 303.85 190.40 309.24 191.50
  C 314.55 192.58 319.43 197.32 323.65 200.81
  C 332.78 208.37 337.78 220.37 341.78 231.50
  C 344.83 239.95 350.63 243.89 359.25 244.71
  Q 363.80 245.15 368.14 246.30
  C 377.03 248.67 379.85 254.03 380.48 262.59
  Q 380.84 267.49 381.83 273.27
  C 382.61 277.88 378.77 282.74 374.85 284.78
  Q 371.76 286.39 367.97 287.34
  Q 355.98 290.37 347.11 289.42
  C 344.18 289.11 341.43 289.95 338.51 290.34
  Q 327.91 291.77 318.37 287.60
  C 316.65 286.84 315.44 285.63 313.93 284.58
  A 2.11 2.09 60.4 0 0 312.58 284.20
  Q 309.74 284.39 306.99 284.22
  C 297.96 283.64 290.24 278.19 288.16 269.02
  C 287.77 267.33 288.38 265.75 288.82 264.15
  A 1.69 1.69 0.0 0 0 287.82 262.14
  C 283.49 260.37 278.84 256.29 279.42 251.28
  C 279.74 248.49 280.02 245.98 277.26 244.38
  Q 273.40 242.16 271.07 238.82
  Q 270.75 238.36 270.31 238.71
  Q 266.60 241.65 262.63 243.47
  Q 247.12 250.57 232.23 253.26
  C 204.50 258.26 175.65 261.14 148.25 257.03
  C 146.15 256.72 144.47 255.74 142.46 255.52
  A 1.15 1.14 79.7 0 1 141.57 254.90
  C 136.92 245.64 136.99 236.10 139.96 226.58
  Q 144.62 211.62 150.05 200.80
  Q 153.49 193.95 156.64 188.06
  Q 162.95 176.30 159.94 163.93
  C 159.21 160.95 157.44 158.10 154.64 156.53
  A 0.57 0.56 -65.9 0 0 153.83 156.84
  Q 153.61 157.48 153.94 158.07
  C 157.65 164.72 159.39 172.51 156.27 179.55
  C 154.67 183.18 152.94 186.97 150.87 190.27
  Q 146.01 198.03 143.42 203.58
  Q 137.23 216.86 133.52 232.70
  C 133.14 234.32 131.51 235.26 130.24 236.13
  C 127.64 237.89 126.06 240.50 125.23 243.61
  Q 124.70 245.62 123.37 247.12
  Q 122.84 247.71 122.49 247.01
  Q 122.10 246.26 122.33 245.42
  C 122.94 243.11 122.96 240.94 121.27 239.05
  Q 119.23 236.77 119.89 233.89
  Q 120.29 232.10 118.48 232.36
  Q 118.28 232.39 118.10 232.47
  Q 116.47 233.22 116.16 235.22
  Q 115.05 242.43 113.52 247.59
  Q 112.94 249.53 110.87 249.44
  A 2.29 2.29 0.0 0 1 108.70 247.38
  C 108.20 242.49 107.69 239.20 102.71 237.01
  Q 100.60 236.08 100.05 233.74
  A 1.05 1.05 0.0 0 0 98.99 232.92
  C 92.87 233.12 96.69 241.26 96.89 244.33
  Q 97.22 249.32 94.89 244.90
  Q 93.57 242.39 92.41 239.83
  Q 91.96 238.85 90.97 239.25
  Q 90.42 239.47 90.44 240.06
  Q 90.65 244.73 86.07 249.30
  Q 85.68 249.69 85.33 249.26
  L 80.27 243.07
  Q 78.96 241.47 77.34 242.76
  L 76.95 243.08
  A 3.12 3.11 55.3 0 0 76.22 247.10
  L 78.81 251.45
  Q 79.25 252.18 78.41 252.03
  Q 74.75 251.37 72.22 248.52
  A 1.01 1.01 0.0 0 0 70.49 248.91
  C 69.25 253.31 69.04 258.16 73.46 260.73
  Q 74.18 261.15 73.37 261.38
  L 72.78 261.55
  Q 72.11 261.74 71.46 261.48
  C 67.54 259.88 66.16 254.92 62.76 252.34
  Q 59.57 249.92 55.29 249.38
  Q 54.23 249.24 53.73 248.29
  Q 51.14 243.34 49.69 238.42
  Q 43.33 216.81 47.29 195.90
  Q 48.17 191.27 49.42 186.29
  Q 49.56 185.73 49.37 185.19
  C 43.01 166.52 42.68 145.13 59.66 132.29
  C 77.95 118.46 103.37 116.54 125.41 122.00
  Q 141.54 126.01 155.24 134.46
  Q 159.87 137.33 164.61 140.44
  Q 167.26 142.19 172.28 143.75
  Q 174.31 144.38 176.38 143.99
  Q 198.39 139.84 217.52 134.20
  Q 225.04 131.98 233.71 128.78
  Q 234.00 128.67 234.14 128.39
  A 0.55 0.55 0.0 0 0 233.68 127.60
  Q 226.07 127.09 218.20 125.96
  C 212.52 125.14 202.29 122.80 201.03 116.36
  C 200.52 113.71 198.33 112.87 196.75 111.05
  C 190.17 103.40 193.19 90.88 198.11 83.43
  Q 206.81 70.24 220.45 75.74
  Q 223.55 77.00 225.83 79.02
  C 228.61 81.48 231.49 83.87 234.74 85.57
  Q 235.29 85.86 235.49 85.27
  Q 239.28 74.17 246.18 62.32
  Q 249.01 57.47 253.16 55.49
  C 255.53 54.36 255.72 52.22 257.22 50.37
  C 261.25 45.40 267.21 43.59 273.37 43.72
  A 2.32 2.30 16.1 0 0 275.40 42.61
  C 277.12 39.78 278.94 37.28 281.96 35.61
  C 289.93 31.21 294.90 35.36 301.36 39.93
  A 0.94 0.93 -53.3 0 0 302.63 39.74
  C 303.77 38.28 305.11 36.86 306.86 36.13
  Q 309.78 34.91 311.44 32.62
  C 314.78 28.03 320.31 27.03 325.52 29.33
  C 327.36 30.15 328.25 31.86 330.30 32.35
  Q 331.22 32.57 332.16 32.69
  C 338.36 33.47 340.43 39.50 341.91 44.60
  Q 342.09 45.20 342.62 45.55
  C 348.36 49.31 356.06 60.12 357.39 67.34
  Q 357.89 70.09 358.82 72.87
  Q 363.88 87.95 362.81 104.17
  Q 362.53 108.35 362.82 112.82
  C 363.46 122.74 361.96 133.17 360.19 142.91
  Q 357.77 156.26 355.72 161.93
  Q 351.48 173.67 342.21 182.44
  C 339.01 185.47 335.13 188.01 331.57 190.69
  C 329.88 191.96 328.84 193.81 327.26 195.19
  Q 326.66 195.71 326.61 194.93
  C 326.22 188.70 324.03 182.56 320.40 177.58
  Q 320.08 177.15 319.60 177.39
  Q 319.00 177.70 319.26 178.34
  C 320.18 180.61 322.18 184.37 322.21 186.62
  A 0.40 0.40 0.0 0 1 321.54 186.92
  C 312.88 178.90 301.50 178.87 290.73 182.27
  Q 286.78 183.51 283.63 185.77
  A 0.53 0.53 0.0 0 0 283.77 186.71
  Q 284.26 186.87 284.74 186.69
  Q 290.19 184.65 295.83 183.39
  Q 301.45 182.15 307.41 183.31
  Q 317.87 185.34 324.45 194.77
  Q 325.29 195.98 325.26 197.24
  A 0.48 0.47 -68.7 0 1 324.47 197.59
  C 321.78 195.18 319.24 192.65 316.05 190.91
  Q 308.66 186.88 298.97 188.88
  C 295.71 189.55 292.04 192.34 289.79 194.73
  Q 287.33 197.34 290.58 195.80
  Z
  M 330.84 48.31
  L 335.88 48.31
  A 1.04 1.04 0.0 0 0 336.92 47.28
  L 336.93 45.78
  A 6.06 3.07 -89.9 0 0 333.87 39.71
  L 332.89 39.71
  A 6.06 3.07 -89.9 0 0 329.81 45.76
  L 329.80 47.26
  A 1.04 1.04 0.0 0 0 330.84 48.31
  Z
  M 311.47 53.74
  L 317.35 50.91
  A 1.34 1.34 0.0 0 0 317.97 49.12
  L 316.55 46.16
  A 8.05 4.47 64.3 0 0 309.03 40.84
  L 308.79 40.95
  A 8.05 4.47 64.3 0 0 308.26 50.15
  L 309.68 53.11
  A 1.34 1.34 0.0 0 0 311.47 53.74
  Z
  M 339.1717 58.4576
  A 3.32 1.51 33.4 0 0 337.2312 55.3694
  A 3.32 1.51 33.4 0 0 333.6283 54.8024
  A 3.32 1.51 33.4 0 0 335.5688 57.8906
  A 3.32 1.51 33.4 0 0 339.1717 58.4576
  Z
  M 327.22 60.02
  A 0.67 0.67 0.0 0 0 327.88 60.27
  L 333.07 59.23
  A 0.67 0.67 0.0 0 0 333.42 58.11
  L 330.37 55.01
  A 0.67 0.67 0.0 0 0 329.77 54.82
  L 325.16 55.72
  A 0.67 0.67 0.0 0 0 324.76 56.79
  L 327.22 60.02
  Z
  M 278.91 56.50
  C 271.52 58.93 270.21 69.22 272.85 75.18
  C 273.54 76.74 275.14 77.62 276.79 76.97
  C 283.19 74.46 293.11 69.16 296.14 62.58
  Q 296.40 62.01 295.95 61.56
  C 291.26 56.92 285.68 54.29 278.91 56.50
  Z
  M 343.4198 58.1146
  A 1.65 0.94 34.5 0 0 342.5924 56.4053
  A 1.65 0.94 34.5 0 0 340.7002 56.2454
  A 1.65 0.94 34.5 0 0 341.5276 57.9547
  A 1.65 0.94 34.5 0 0 343.4198 58.1146
  Z
  M 321.33 57.07
  A 0.72 0.72 0.0 0 0 320.68 56.91
  L 317.32 57.76
  A 0.72 0.72 0.0 0 0 316.95 58.92
  L 320.42 63.03
  A 0.72 0.72 0.0 0 0 321.25 63.23
  L 324.98 61.68
  A 0.72 0.72 0.0 0 0 325.18 60.48
  L 321.33 57.07
  Z
  M 345.26 61.03
  C 338.23 61.05 331.41 61.58 324.95 64.25
  Q 323.36 64.90 323.09 66.60
  C 321.51 76.54 317.04 84.83 307.28 88.52
  A 0.40 0.40 0.0 0 0 307.22 89.24
  C 310.28 91.05 313.15 93.95 315.59 96.62
  Q 316.06 97.13 316.63 96.76
  Q 322.76 92.81 329.65 89.19
  A 1.42 1.40 79.3 0 0 330.39 88.09
  Q 331.19 80.58 336.54 76.63
  C 342.64 72.13 351.09 73.45 353.68 81.16
  C 354.19 82.67 355.78 83.09 357.11 82.56
  Q 357.63 82.36 357.48 81.83
  Q 356.42 77.86 355.03 75.48
  Q 351.10 68.73 347.56 62.38
  A 2.63 2.62 -14.5 0 0 345.26 61.03
  Z
  M 315.62 68.65
  A 0.32 0.32 0.0 0 0 315.67 68.91
  L 318.59 73.36
  A 0.32 0.32 0.0 0 0 319.18 73.24
  L 320.30 65.97
  A 0.32 0.32 0.0 0 0 320.24 65.73
  L 317.72 62.40
  A 0.32 0.32 0.0 0 0 317.16 62.51
  L 315.62 68.65
  Z
  M 310.02 75.43
  A 0.35 0.35 0.0 0 0 309.94 75.80
  L 312.37 82.35
  A 0.35 0.35 0.0 0 0 312.98 82.45
  L 317.63 76.62
  A 0.35 0.35 0.0 0 0 317.66 76.24
  L 314.97 71.20
  A 0.35 0.35 0.0 0 0 314.42 71.12
  L 310.02 75.43
  Z
  M 307.59 84.24
  Q 307.38 85.44 308.52 85.03
  Q 309.57 84.65 310.38 83.86
  A 1.33 1.32 59.0 0 0 310.71 82.51
  L 308.89 76.91
  Q 308.79 76.60 308.50 76.43
  Q 308.04 76.16 307.62 76.92
  A 0.73 0.70 -36.5 0 0 307.54 77.38
  Q 308.14 80.97 307.59 84.24
  Z
  M 298.35 84.06
  A 1.09 1.09 0.0 0 0 298.87 85.04
  L 302.85 87.50
  A 1.09 1.09 0.0 0 0 304.45 86.20
  L 301.53 78.12
  A 1.09 1.09 0.0 0 0 301.24 77.69
  L 300.47 76.99
  A 1.09 1.09 0.0 0 0 298.65 77.74
  L 298.35 84.06
  Z
  M 338.69 77.69
  A 1.04 1.04 0.0 0 0 338.02 78.11
  L 333.81 84.09
  A 1.04 1.04 0.0 0 0 334.97 85.68
  L 349.58 81.10
  A 1.04 1.04 0.0 0 0 349.83 79.24
  L 345.92 76.69
  A 1.04 1.04 0.0 0 0 345.17 76.53
  L 338.69 77.69
  Z
  M 303.04 101.71
  C 302.78 98.29 302.54 94.43 303.20 91.15
  Q 303.31 90.59 302.78 90.36
  Q 299.44 88.89 296.74 86.59
  Q 296.20 86.14 295.56 86.42
  Q 293.53 87.30 291.41 87.85
  C 287.07 88.98 284.53 92.76 284.77 97.19
  C 284.99 101.46 286.87 106.88 291.49 107.88
  C 295.08 108.65 298.95 106.14 301.76 104.12
  C 302.59 103.52 303.12 102.80 303.04 101.71
  Z
  M 306.78 91.73
  A 0.66 0.66 0.0 0 0 305.66 92.23
  L 306.14 101.47
  A 0.66 0.66 0.0 0 0 306.71 102.09
  L 308.45 102.34
  A 0.66 0.66 0.0 0 0 308.94 102.22
  L 313.22 99.12
  A 0.66 0.66 0.0 0 0 313.29 98.11
  L 306.78 91.73
  Z
  M 232.07 108.65
  L 233.76 109.00
  Q 234.27 109.11 234.70 108.82
  Q 234.95 108.64 235.12 108.38
  Q 235.92 107.14 234.69 106.30
  Q 231.48 104.09 229.77 105.64
  C 227.70 107.51 229.52 112.21 230.61 113.99
  Q 231.87 116.07 234.39 115.40
  C 240.96 113.65 243.41 104.87 237.03 100.96
  C 233.83 99.01 228.83 101.96 225.72 103.02
  C 222.18 104.24 218.83 103.72 215.29 102.80
  Q 206.06 100.42 197.72 95.88
  A 0.52 0.52 0.0 0 0 196.96 96.46
  Q 197.10 97.02 197.55 97.43
  Q 205.23 104.44 215.80 106.38
  C 219.61 107.07 222.93 107.72 226.69 106.08
  Q 229.23 104.97 231.91 103.98
  C 233.75 103.30 235.50 103.60 236.96 104.88
  C 240.49 107.95 233.63 116.31 231.17 109.70
  Q 230.68 108.37 232.07 108.65
  Z
  M 357.4415 108.3347
  A 0.76 0.46 78.5 0 0 357.7408 107.4983
  A 0.76 0.46 78.5 0 0 357.1385 106.8453
  A 0.76 0.46 78.5 0 0 356.8392 107.6817
  A 0.76 0.46 78.5 0 0 357.4415 108.3347
  Z
  M 354.16 107.50
  L 342.80 110.83
  A 0.13 0.13 0.0 0 0 342.71 110.99
  L 342.73 111.08
  A 5.89 5.56 -16.3 0 0 349.95 114.76
  L 350.25 114.67
  A 5.89 5.56 -16.3 0 0 354.35 107.68
  L 354.32 107.59
  A 0.13 0.13 0.0 0 0 354.16 107.50
  Z
  M 280.12 141.66
  C 279.77 142.91 279.02 144.01 279.00 145.33
  Q 278.92 149.19 279.01 153.22
  C 279.13 159.38 275.75 164.64 272.44 169.85
  Q 271.67 171.06 271.69 172.53
  A 1.15 1.15 0.0 0 0 273.41 173.51
  Q 284.59 167.02 287.89 156.04
  Q 290.37 147.76 291.68 139.75
  A 1.48 1.47 -5.7 0 1 292.61 138.62
  Q 296.99 136.99 299.94 134.09
  Q 300.36 133.67 300.89 133.96
  Q 304.30 135.81 308.58 136.08
  Q 309.36 136.13 309.15 136.88
  C 307.30 143.45 304.58 149.13 299.58 153.82
  Q 296.71 156.52 294.17 159.87
  Q 292.45 162.15 295.00 160.86
  Q 299.66 158.49 305.19 155.75
  Q 310.94 152.91 313.37 150.63
  C 317.40 146.84 319.68 141.91 320.71 136.45
  C 321.09 134.47 322.48 133.14 324.43 132.76
  C 327.72 132.12 331.12 131.61 333.65 129.07
  Q 336.40 126.32 335.86 130.17
  Q 334.92 136.83 332.69 143.32
  C 331.69 146.23 328.38 148.59 328.41 151.61
  A 0.56 0.56 0.0 0 0 329.25 152.09
  Q 333.29 149.75 336.89 147.18
  C 342.79 142.97 343.73 132.91 344.19 126.04
  Q 344.32 124.06 346.25 123.63
  L 347.56 123.34
  Q 349.65 122.86 349.69 125.01
  Q 349.83 133.17 348.48 136.56
  Q 345.86 143.17 344.30 149.75
  A 0.48 0.48 0.0 0 0 345.00 150.29
  Q 345.58 149.96 346.02 149.45
  Q 351.49 142.94 353.56 136.23
  Q 355.78 129.06 356.19 121.38
  C 356.29 119.48 357.88 117.94 358.78 116.31
  Q 358.90 116.10 358.69 115.98
  L 356.99 115.01
  A 0.29 0.29 0.0 0 0 356.59 115.13
  Q 355.22 117.70 353.54 118.83
  C 349.65 121.46 344.36 123.20 339.86 120.46
  Q 336.13 118.18 338.35 113.13
  Q 338.64 112.47 337.92 112.41
  L 337.55 112.37
  A 0.84 0.84 0.0 0 0 336.66 113.01
  Q 335.45 117.85 337.94 121.29
  Q 338.27 121.76 337.92 122.21
  Q 333.84 127.49 327.75 129.57
  A 0.55 0.55 0.0 0 1 327.08 128.80
  C 329.13 124.67 330.32 120.91 329.00 116.22
  Q 328.70 115.13 327.64 115.53
  L 327.25 115.67
  A 0.84 0.84 0.0 0 0 326.73 116.65
  Q 328.70 124.95 322.42 129.85
  C 317.20 133.91 308.12 135.22 302.38 130.53
  A 0.69 0.68 24.6 0 1 302.14 129.90
  Q 302.49 127.45 301.88 124.90
  Q 301.60 123.72 300.42 124.01
  L 300.09 124.09
  Q 298.99 124.36 299.12 125.48
  Q 299.36 127.47 298.90 128.81
  Q 297.13 133.89 291.17 135.54
  Q 286.27 136.89 280.43 137.38
  C 275.20 137.83 271.36 134.41 273.43 129.05
  Q 273.96 127.69 272.52 127.92
  L 271.59 128.07
  A 2.61 2.61 0.0 0 0 269.46 130.07
  Q 268.54 134.10 270.52 137.05
  Q 271.60 138.65 269.71 138.21
  Q 266.14 137.38 263.57 134.81
  A 0.86 0.86 0.0 0 1 263.90 133.39
  L 265.53 132.84
  Q 266.84 132.39 266.73 131.00
  Q 266.68 130.30 265.82 129.85
  A 1.33 1.29 -39.7 0 0 264.77 129.77
  Q 260.76 131.19 257.00 130.61
  C 254.21 130.19 253.44 127.10 250.94 126.65
  Q 249.28 126.34 247.59 126.53
  Q 246.94 126.60 247.14 127.22
  C 248.92 132.63 252.85 133.97 257.79 135.42
  Q 258.88 135.74 259.16 136.88
  A 0.50 0.49 82.3 0 1 258.70 137.49
  C 255.80 137.59 252.16 137.79 249.61 136.13
  Q 245.23 133.29 244.13 127.76
  Q 243.88 126.49 242.59 126.53
  L 238.21 126.67
  Q 236.62 126.71 237.01 128.25
  Q 239.55 138.41 248.75 141.29
  C 250.40 141.81 252.08 141.72 253.82 141.78
  Q 254.50 141.81 254.39 142.49
  C 252.73 152.15 244.02 151.61 237.47 155.95
  Q 234.78 157.74 238.00 158.02
  Q 248.07 158.88 257.45 154.37
  C 262.90 151.74 265.01 147.60 267.37 142.27
  A 1.98 1.97 16.2 0 1 269.48 141.12
  Q 274.16 141.83 279.42 140.90
  A 0.61 0.61 0.0 0 1 280.12 141.66
  Z
  M 322.97 116.87
  L 308.85 121.24
  A 0.02 0.02 0.0 0 0 308.84 121.27
  L 308.86 121.34
  A 7.30 6.46 -17.2 0 0 317.74 125.36
  L 317.96 125.29
  A 7.30 6.46 -17.2 0 0 323.02 116.96
  L 322.99 116.88
  A 0.02 0.02 0.0 0 0 322.97 116.87
  Z
  M 293.66 125.09
  L 278.59 127.74
  A 0.34 0.34 0.0 0 0 278.31 128.14
  L 278.50 129.22
  A 6.60 5.68 -10.0 0 0 285.99 133.67
  L 288.73 133.18
  A 6.60 5.68 -10.0 0 0 294.24 126.44
  L 294.05 125.36
  A 0.34 0.34 0.0 0 0 293.66 125.09
  Z
  M 83.74 147.56
  Q 91.87 143.86 98.51 139.51
  C 99.89 138.61 101.55 138.28 103.07 137.69
  Q 104.01 137.33 103.01 137.29
  C 94.90 137.02 88.14 137.13 80.77 139.96
  C 74.50 142.38 66.14 148.02 64.66 154.66
  A 1.49 1.49 0.0 0 0 65.92 156.46
  Q 66.98 156.60 67.94 156.01
  Q 75.98 151.08 83.74 147.56
  Z
  M 167.97 144.94
  Q 154.98 142.66 144.11 141.86
  A 0.71 0.70 72.4 0 0 143.52 143.01
  C 145.85 145.87 150.46 149.27 154.40 148.45
  Q 160.66 147.13 167.56 146.08
  Q 168.31 145.97 168.23 145.23
  A 0.32 0.31 -87.8 0 0 167.97 144.94
  Z"
/>
<path fill="#fdfffe" d="
  M 176.02 278.71
  C 180.05 280.38 184.67 280.24 186.70 284.90
  Q 190.19 292.90 190.96 302.12
  C 191.05 303.14 190.85 303.91 190.49 304.83
  Q 190.19 305.61 191.02 305.61
  C 263.27 305.68 332.25 306.52 401.25 306.62
  Q 404.74 306.62 408.68 306.97
  A 1.12 1.12 0.0 0 1 409.68 307.84
  Q 410.00 309.28 409.95 310.73
  Q 409.11 332.98 408.38 355.52
  Q 408.01 366.89 407.32 377.61
  Q 407.20 379.40 406.69 380.72
  Q 406.51 381.19 406.01 381.28
  Q 402.94 381.86 400.25 381.85
  Q 305.48 381.71 213.25 381.52
  Q 202.50 381.50 193.25 381.54
  Q 124.42 381.88 63.50 382.11
  C 56.71 382.13 50.33 382.74 43.43 381.98
  Q 41.33 381.75 41.31 379.63
  Q 40.95 344.44 40.72 307.30
  A 1.14 1.14 0.0 0 1 41.69 306.17
  Q 45.14 305.64 49.25 305.63
  Q 76.69 305.57 103.31 305.92
  A 0.60 0.60 0.0 0 0 103.80 304.96
  Q 101.52 301.91 99.07 299.29
  C 94.92 294.88 88.55 293.50 83.89 289.44
  Q 76.35 282.87 69.03 273.11
  A 1.51 1.50 -62.7 0 1 68.74 272.19
  C 68.84 268.74 75.21 262.43 77.96 260.44
  Q 84.63 255.62 94.06 256.64
  Q 97.72 257.04 101.04 257.73
  C 112.32 260.09 123.97 253.08 133.15 248.03
  A 1.11 1.10 -25.6 0 1 134.71 248.57
  C 136.47 252.86 138.27 257.48 141.57 260.92
  Q 148.01 267.63 156.72 272.26
  C 163.99 276.12 172.17 274.27 179.90 273.68
  C 196.60 272.40 200.60 288.56 193.54 300.43
  Q 193.28 300.85 192.80 300.69
  A 0.70 0.69 -80.7 0 1 192.33 300.03
  Q 192.28 295.26 191.61 291.57
  C 190.81 287.20 188.32 280.72 183.90 278.92
  Q 179.87 277.29 176.23 277.48
  Q 173.40 277.63 176.02 278.71
  Z
  M 168.79 283.73
  Q 164.78 283.46 160.51 283.26
  Q 159.63 283.22 158.88 283.66
  Q 158.23 284.04 158.98 284.15
  Q 166.41 285.30 173.03 286.39
  C 176.77 287.00 178.77 290.73 180.20 293.75
  Q 182.70 299.02 185.08 304.97
  Q 185.47 305.92 186.46 305.68
  L 186.81 305.59
  Q 187.42 305.44 187.21 304.86
  Q 184.40 297.03 181.00 290.08
  C 178.32 284.62 174.42 284.10 168.79 283.73
  Z
  M 138.58 290.12
  C 145.45 290.28 152.87 291.65 159.37 293.82
  Q 165.61 295.91 169.18 305.07
  Q 169.56 306.04 170.57 305.78
  L 171.10 305.64
  A 0.51 0.51 0.0 0 0 171.46 305.00
  C 169.75 299.51 166.63 293.99 161.01 291.97
  C 153.79 289.37 145.27 287.34 137.77 288.68
  A 0.56 0.56 0.0 0 0 137.44 289.59
  Q 137.88 290.10 138.58 290.12
  Z"
/>
</svg>
