{
  "accessors": [
    {
      "bufferView": 2,
      "componentType": 5126,
      "count": 65532,
      "max": [
        13.47583293914795,
        8.932808876037598,
        7.606348991394043
      ],
      "min": [
        -20.47899627685547,
        -16.423683166503906,
        -7.386014938354492
      ],
      "type": "VEC3"
    },
    {
      "bufferView": 2,
      "byteOffset": 786384,
      "componentType": 5126,
      "count": 65532,
      "max": [
        0.9999920129776001,
        0.9999998211860657,
        0.9999609589576721
      ],
      "min": [
        -0.9608926177024841,
        -0.9999997615814209,
        -0.999997615814209
      ],
      "type": "VEC3"
    },
    {
      "bufferView": 1,
      "componentType": 5126,
      "count": 65532,
      "max": [
        0.9990689754486084,
        0.9989320039749146
      ],
      "min": [
        0.0010949999559670687,
        0.2711679935455322
      ],
      "type": "VEC2"
    },
    {
      "bufferView": 0,
      "componentType": 5125,
      "count": 330531,
      "type": "SCALAR"
    },
    {
      "bufferView": 2,
      "byteOffset": 1572768,
      "componentType": 5126,
      "count": 65532,
      "max": [
        8.253565788269043,
        8.884126663208008,
        7.591056823730469
      ],
      "min": [
        -17.103816986083984,
        -16.29388427734375,
        -7.331687927246094
      ],
      "type": "VEC3"
    },
    {
      "bufferView": 2,
      "byteOffset": 2359152,
      "componentType": 5126,
      "count": 65532,
      "max": [
        0.9999905228614807,
        0.9999991059303284,
        0.9999921321868896
      ],
      "min": [
        -0.9999604225158691,
        -1.0,
        -0.999997615814209
      ],
      "type": "VEC3"
    },
    {
      "bufferView": 1,
      "byteOffset": 524256,
      "componentType": 5126,
      "count": 65532,
      "max": [
        0.9990580081939697,
        0.998960018157959
      ],
      "min": [
        0.0010600000387057662,
        0.24463799595832825
      ],
      "type": "VEC2"
    },
    {
      "bufferView": 0,
      "byteOffset": 1322124,
      "componentType": 5125,
      "count": 312546,
      "type": "SCALAR"
    },
    {
      "bufferView": 2,
      "byteOffset": 3145536,
      "componentType": 5126,
      "count": 65532,
      "max": [
        5.814547061920166,
        8.75378704071045,
        7.594295978546143
      ],
      "min": [
        -20.47899627685547,
        -16.587881088256836,
        -7.384757041931152
      ],
      "type": "VEC3"
    },
    {
      "bufferView": 2,
      "byteOffset": 3931920,
      "componentType": 5126,
      "count": 65532,
      "max": [
        0.9999967813491821,
        0.9999991059303284,
        0.9999968409538269
      ],
      "min": [
        -0.9999539256095886,
        -0.9999999403953552,
        -0.9999998807907104
      ],
      "type": "VEC3"
    },
    {
      "bufferView": 1,
      "byteOffset": 1048512,
      "componentType": 5126,
      "count": 65532,
      "max": [
        0.9990599751472473,
        0.998960018157959
      ],
      "min": [
        0.0010389999952167273,
        0.25886398553848267
      ],
      "type": "VEC2"
    },
    {
      "bufferView": 0,
      "byteOffset": 2572308,
      "componentType": 5125,
      "count": 312225,
      "type": "SCALAR"
    },
    {
      "bufferView": 2,
      "byteOffset": 4718304,
      "componentType": 5126,
      "count": 43459,
      "max": [
        7.285675048828125,
        8.805891036987305,
        7.595894813537598
      ],
      "min": [
        2.1136300563812256,
        -15.32636547088623,
        -7.274120807647705
      ],
      "type": "VEC3"
    },
    {
      "bufferView": 2,
      "byteOffset": 5239812,
      "componentType": 5126,
      "count": 43459,
      "max": [
        0.9999845027923584,
        0.999997615814209,
        0.9999974966049194
      ],
      "min": [
        -0.9997531175613403,
        -0.9999998807907104,
        -0.9999998807907104
      ],
      "type": "VEC3"
    },
    {
      "bufferView": 1,
      "byteOffset": 1572768,
      "componentType": 5126,
      "count": 43459,
      "max": [
        0.9990170001983643,
        0.9989349842071533
      ],
      "min": [
        0.001041000010445714,
        0.2680310010910034
      ],
      "type": "VEC2"
    },
    {
      "bufferView": 0,
      "byteOffset": 3821208,
      "componentType": 5125,
      "count": 201663,
      "type": "SCALAR"
    }
  ],
  "asset": {
    "extras": {
      "author": "HoangHiepVu (https://sketchfab.com/HoangHiepVu)",
      "license": "CC-BY-4.0 (http://creativecommons.org/licenses/by/4.0/)",
      "source": "https://sketchfab.com/3d-models/torii-gate-at-kinosaki-japan-3ed35b9d45014164a25484043aadd8d1",
      "title": "Torii gate at Kinosaki, Japan"
    },
    "generator": "Sketchfab-12.67.0",
    "version": "2.0"
  },
  "bufferViews": [
    {
      "buffer": 0,
      "byteLength": 4627860,
      "name": "floatBufferViews",
      "target": 34963
    },
    {
      "buffer": 0,
      "byteLength": 1920440,
      "byteOffset": 4627860,
      "byteStride": 8,
      "name": "floatBufferViews",
      "target": 34962
    },
    {
      "buffer": 0,
      "byteLength": 5761320,
      "byteOffset": 6548300,
      "byteStride": 12,
      "name": "floatBufferViews",
      "target": 34962
    }
  ],
  "buffers": [
    {
      "byteLength": 12309620,
      "uri": "scene.bin"
    }
  ],
  "extensionsUsed": [
    "KHR_materials_unlit"
  ],
  "images": [
    {
      "uri": "textures/material_0_baseColor.jpeg"
    }
  ],
  "materials": [
    {
      "doubleSided": true,
      "extensions": {
        "KHR_materials_unlit": {}
      },
      "name": "material_0",
      "pbrMetallicRoughness": {
        "baseColorTexture": {
          "index": 0
        },
        "metallicFactor": 0.0
      }
    }
  ],
  "meshes": [
    {
      "name": "Object_0",
      "primitives": [
        {
          "attributes": {
            "NORMAL": 1,
            "POSITION": 0,
            "TEXCOORD_0": 2
          },
          "indices": 3,
          "material": 0,
          "mode": 4
        }
      ]
    },
    {
      "name": "Object_1",
      "primitives": [
        {
          "attributes": {
            "NORMAL": 5,
            "POSITION": 4,
            "TEXCOORD_0": 6
          },
          "indices": 7,
          "material": 0,
          "mode": 4
        }
      ]
    },
    {
      "name": "Object_2",
      "primitives": [
        {
          "attributes": {
            "NORMAL": 9,
            "POSITION": 8,
            "TEXCOORD_0": 10
          },
          "indices": 11,
          "material": 0,
          "mode": 4
        }
      ]
    },
    {
      "name": "Object_3",
      "primitives": [
        {
          "attributes": {
            "NORMAL": 13,
            "POSITION": 12,
            "TEXCOORD_0": 14
          },
          "indices": 15,
          "material": 0,
          "mode": 4
        }
      ]
    }
  ],
  "nodes": [
    {
      "children": [
        1
      ],
      "matrix": [
        1.0,
        0.0,
        0.0,
        0.0,
        0.0,
        -1.0,
        -4.440892098500626e-16,
        0.0,
        0.0,
        4.440892098500626e-16,
        -1.0,
        0.0,
        0.0,
        -3.717395544052125,
        3.9377453327178946,
        1.0
      ],
      "name": "Sketchfab_model"
    },
    {
      "children": [
        2,
        3,
        4,
        5
      ],
      "name": "Model.obj.cleaner.materialmerger.gles"
    },
    {
      "mesh": 0,
      "name": "Object_2"
    },
    {
      "mesh": 1,
      "name": "Object_3"
    },
    {
      "mesh": 2,
      "name": "Object_4"
    },
    {
      "mesh": 3,
      "name": "Object_5"
    }
  ],
  "samplers": [
    {
      "magFilter": 9729,
      "minFilter": 9987,
      "wrapS": 10497,
      "wrapT": 10497
    }
  ],
  "scene": 0,
  "scenes": [
    {
      "name": "Sketchfab_Scene",
      "nodes": [
        0
      ]
    }
  ],
  "textures": [
    {
      "sampler": 0,
      "source": 0
    }
  ]
}
